<svg width="74" height="24" viewBox="0 0 74 24" fill="none" xmlns="http://www.w3.org/2000/svg">
<path d="M24.9063 6.28962L24.5104 9.69599H21.4144L23.9108 10.5182C23.1369 12.3584 22.4702 13.8267 21.9108 14.923C22.2721 15.2558 22.7912 15.6082 23.4679 15.9802C23.409 16.9003 23.3534 17.7225 23.3012 18.4468C23.249 19.1712 23.1604 20.0717 23.0352 21.1485C22.9715 21.6966 22.8574 22.0588 22.6929 22.235C22.5467 22.3916 22.3216 22.4699 22.0176 22.4699C20.5936 22.4699 19.4492 21.7162 18.5844 20.2088C17.7666 21.1876 16.8574 22.1273 15.8568 23.0278C15.7401 22.9299 15.5011 22.6461 15.1397 22.1762L14.7658 21.677H11.5498L11.4917 22.1762H8.32374L9.72317 10.1365H16.6592C16.6499 9.9407 16.651 9.79387 16.6624 9.69599H9.46237C9.43272 9.81345 9.39627 10.0582 9.35304 10.4301L9.18931 12.0452C8.80247 15.3733 8.494 17.7519 8.26389 19.181C8.03378 20.6101 7.80811 21.7945 7.58688 22.7342C6.57184 22.3818 5.45511 22.0784 4.23669 21.8239L3.67776 21.677C4.05194 20.385 4.36327 19.0831 4.61172 17.7714H4.13172C3.76707 19.8074 3.41358 21.3344 3.07126 22.3524C2.23456 22.1175 1.24704 21.9413 0.108694 21.8239C0.661225 20.6492 1.09823 19.2984 1.41972 17.7714H1.01172L1.51689 13.4254H5.26089L5.34281 12.7206H1.91081L2.6549 6.31898H5.5589L5.26877 8.81503H5.79677L6.09714 6.23089L16.7977 6.26025L16.842 5.67295H14.826L14.8874 5.14437H11.9354L11.874 5.67295H6.76199L6.82343 5.14437H2.33543L2.82352 0.945137H7.31152L7.39685 0.211006H12.5089L12.4235 0.945137H15.3755L15.4609 0.211006H20.5729L20.4875 0.945137H24.9995L24.5114 5.14437H22.3514C22.8178 5.39887 23.3015 5.78062 23.8023 6.28962H24.9063ZM19.9414 5.64358H20.4694L20.3943 6.28962H21.2343L21.9674 5.14437H19.9994L19.9414 5.64358ZM20.1127 12.0158C20.4643 11.1936 20.7382 10.4203 20.9344 9.69599H20.1184C20.0936 10.4595 20.0917 11.2328 20.1127 12.0158ZM13.1398 13.5722L13.2217 12.8674H12.5737L12.4918 13.5722H13.1398ZM15.2991 18.7405C16.0119 18.114 16.6744 17.4386 17.2866 16.7143C16.9751 15.5397 16.7802 14.2574 16.7017 12.8674H15.9577L15.8758 13.5722H16.5718L16.053 18.0357H15.357L15.2751 18.7405H15.2991ZM12.2904 15.3048L12.2085 16.0095H14.2965L14.3784 15.3048H12.2904ZM21.2744 17.5072C21.3064 17.5072 21.3327 17.4191 21.3532 17.2429C21.3623 17.1646 21.3826 16.7143 21.4142 15.8921C21.2247 16.2836 21.0226 16.6458 20.8079 16.9786C20.9383 17.2331 21.0938 17.4093 21.2744 17.5072ZM12.621 18.0357H11.973L11.8911 18.7405H12.5391L12.621 18.0357Z" fill="black" fill-opacity="0.7"/>
<path d="M44.9507 14.7175C45.6507 15.7159 46.4945 16.5773 47.4823 17.3016C46.989 17.9672 46.5185 18.6426 46.0708 19.3278C45.6255 19.9934 45.3445 20.4143 45.2281 20.5905C44.6777 21.4715 44.2414 22.1273 43.9194 22.558C41.7146 19.9151 39.9776 15.8627 38.7085 10.4008L41.9344 9.69599H37.6384C38.2789 10.7923 38.7985 12.1039 39.197 13.6309C39.6138 15.1384 39.7596 16.4304 39.6344 17.5072C39.4911 18.7405 39.2333 19.7193 38.8611 20.4437C38.4912 21.1485 37.7361 21.726 36.5957 22.1762C35.4737 22.6069 33.7846 22.8223 31.5286 22.8223C31.4965 22.5482 31.4163 22.2056 31.2881 21.7945C31.1599 21.3834 31.0077 20.9723 30.8315 20.5611C29.4102 21.3638 27.6963 22.0686 25.6897 22.6754C25.243 20.7373 24.6354 19.2886 23.8669 18.3294C26.5387 17.9183 28.7007 17.4191 30.3529 16.8318C32.0212 16.2444 33.5911 15.4712 35.0626 14.5119L34.8532 14.0421C33.3565 14.9426 31.9695 15.6571 30.692 16.1857C29.4306 16.7143 27.8891 17.1743 26.0676 17.5659C26.031 17.468 25.9452 17.2429 25.8101 16.8905C25.6934 16.5185 25.556 16.1857 25.3982 15.8921C25.2403 15.5984 25.0608 15.3537 24.8595 15.1579C26.7954 14.8839 28.4317 14.5021 29.7686 14.0127C31.1215 13.5233 32.44 12.8479 33.7241 11.9865L33.4771 11.6341C32.3346 12.378 31.1761 12.9849 30.0015 13.4547C28.8291 13.905 27.5482 14.2574 26.1586 14.5119C26.1471 14.4727 26.0693 14.2476 25.9251 13.8365C25.6114 12.8185 25.2887 12.0158 24.957 11.4285C26.5775 11.2524 27.9465 11.037 29.0641 10.7825C30.1999 10.5084 31.114 10.1463 31.8064 9.69599H28.5184L28.7471 7.72852H25.6271L26.4053 1.03323H35.1413L35.2403 0.181641H40.7363L40.6373 1.03323H49.3733L48.5951 7.72852H45.4991L45.3216 9.25551C45.7099 8.80524 46.1039 8.30603 46.5036 7.75788C46.8745 8.83461 47.1846 9.67641 47.4341 10.2833C47.6996 10.8902 48.0119 11.4383 48.371 11.9278C47.6034 12.75 46.4633 13.6799 44.9507 14.7175ZM43.8044 5.99597L43.8659 5.46739H30.9059L30.8444 5.99597H43.8044ZM42.9184 9.69599C43.0215 10.1854 43.1543 10.6944 43.3169 11.223C43.8469 10.7923 44.3861 10.2833 44.9344 9.69599H42.9184ZM33.5597 18.7699C34.2568 18.6916 34.7298 18.5447 34.9789 18.3294C35.2439 18.114 35.422 17.7519 35.5132 17.2429C34.7729 17.8302 34.1217 18.3392 33.5597 18.7699Z" fill="black" fill-opacity="0.7"/>
<path d="M67.5231 12.1333C67.4295 12.3878 67.1761 13.0534 66.763 14.1301H71.779L71.325 18.0357C71.1999 19.1125 70.8186 19.9836 70.1812 20.6492C69.5439 21.3149 68.3796 21.8336 66.6883 22.2056C64.9994 22.558 62.5709 22.7342 59.4029 22.7342C59.4207 21.8924 59.3689 21.031 59.2473 20.15C59.1279 19.2495 58.907 18.5349 58.5844 18.0064H61.9924C63.1924 18.0064 63.9936 17.9966 64.3958 17.977C64.8164 17.9378 65.0712 17.8791 65.1603 17.8008C65.2517 17.7029 65.3144 17.5072 65.3486 17.2135H60.2846C60.6317 16.5675 60.9057 15.9997 61.1065 15.5103H59.5465C59.3366 16.2151 59.0775 16.8611 58.7693 17.4484C58.4633 18.0162 58.0624 18.5741 57.5667 19.1222C56.8517 19.9053 55.9321 20.5905 54.8078 21.1778C53.6835 21.7651 52.1673 22.3524 50.259 22.9397C49.991 21.9413 49.6808 21.031 49.3284 20.2088C48.992 19.3865 48.4875 18.4958 47.815 17.5365C50.327 17.5365 52.0743 17.3016 53.0569 16.8318C53.8682 16.4598 54.4874 16.0193 54.9145 15.5103H50.4745L50.8193 12.5444C50.1702 12.6227 49.6845 12.6717 49.3622 12.6912C49.4051 11.6341 49.4149 10.7923 49.3918 10.1658C49.3869 9.5198 49.2894 8.91292 49.0994 8.34519C52.4594 8.34519 55.5816 8.18857 58.466 7.87534L58.4831 7.72852H50.0591L50.4277 4.55707H58.8517L58.8961 4.17532C57.6618 4.19489 56.4287 4.20468 55.1967 4.20468C53.9807 4.20468 52.7566 4.20468 51.5247 4.20468C51.6134 3.44119 51.6702 2.81473 51.6951 2.32531C51.7383 1.81631 51.7334 1.30731 51.6806 0.79831H53.1206C57.3469 0.778734 60.8623 0.749369 63.6668 0.710216C66.4897 0.651485 69.3422 0.543812 72.2244 0.387197C72.0509 0.915772 71.9175 1.44435 71.8241 1.97292C71.7466 2.5015 71.6613 3.16711 71.568 3.96976C69.1086 4.06765 66.6457 4.12638 64.1795 4.14595L64.1317 4.55707H72.5557L72.1871 7.72852H63.7631L63.7494 7.84598C66.7347 8.17878 69.8514 8.34519 73.0994 8.34519C72.8162 8.85419 72.5914 9.41213 72.4248 10.019C72.2606 10.6063 72.1237 11.1643 72.0143 11.6928C71.9231 12.2018 71.8604 12.5346 71.8262 12.6912C70.2056 12.5934 68.6774 12.3193 67.2418 11.869C65.8084 11.3992 64.5533 10.8412 63.4763 10.1952L63.2989 11.7222H58.0189L58.1895 10.2539C56.5237 11.0957 54.8029 11.7222 53.0271 12.1333H67.5231Z" fill="black" fill-opacity="0.7"/>
</svg>
