<svg width="51" height="24" viewBox="0 0 51 24" fill="none" xmlns="http://www.w3.org/2000/svg">
<path d="M3.09483 0.881013H12.0948L11.7561 3.79507H2.75611L3.09483 0.881013ZM24.0456 12.0418L23.3952 17.6368H19.4592L18.8326 23.0278H13.7446L14.3712 17.6368H10.7712L11.4216 12.0418H11.9736C11.9718 10.8179 12.0303 9.3512 12.149 7.64162L15.3715 7.37935C15.2206 8.95294 15.0879 10.5071 14.9736 12.0418H15.4776L16.0906 6.7674H12.2746L12.9487 0.968434H24.7807L24.1066 6.7674H20.2666L19.6536 12.0418H20.1576C20.4929 9.98258 20.7296 8.42841 20.8675 7.37935L24.029 7.64162C23.7934 9.11807 23.5029 10.5848 23.1576 12.0418H24.0456ZM2.19453 4.29046H12.4425L12.0666 7.52506H1.81856L2.19453 4.29046ZM2.26498 8.02045H11.265L10.9161 11.0219H1.9161L2.26498 8.02045ZM10.5096 14.5188H1.50965L1.86191 11.4882H10.8619L10.5096 14.5188ZM4.50799 22.9987H0.355989L1.28407 15.0142H10.8121L9.92464 22.649H4.54863L4.50799 22.9987ZM6.16554 19.2687L6.31796 17.9574H5.09396L4.94154 19.2687H6.16554Z" fill="black" fill-opacity="0.7"/>
<path d="M44.1083 1.52211C45.0437 1.87179 46.0041 2.14377 46.9895 2.33804C47.9771 2.51288 49.087 2.60031 50.319 2.60031C49.321 4.85384 48.7429 6.52457 48.5844 7.61248C48.4174 7.53477 48.2711 7.4862 48.1453 7.46678L47.9421 9.21521H34.4301L34.6266 7.52506H25.8186L26.1945 4.29046H33.6345L33.5721 3.79507H26.6841L27.0228 0.881013H34.7508L34.5341 2.74601C35.6563 2.72658 36.6126 2.55174 37.403 2.22148C38.0061 1.98835 38.4526 1.72609 38.7425 1.43468C39.0506 1.12385 39.2672 0.706169 39.3921 0.181641H44.5761C44.5127 0.589608 44.3568 1.03643 44.1083 1.52211ZM44.0079 5.6892C43.1754 5.28124 42.3736 4.81499 41.6025 4.29046C41.1847 4.58186 40.7359 4.86355 40.2563 5.13553C39.98 5.31038 39.6225 5.49493 39.184 5.6892H44.0079ZM26.193 8.02045H33.921L33.5721 11.0219H25.8441L26.193 8.02045ZM32.8686 22.649L34.3691 9.73974H47.9051L46.6553 20.4926C46.5672 21.2503 46.4194 21.7651 46.2118 22.037C46.0202 22.309 45.6158 22.4839 44.9988 22.5616C44.3978 22.6393 43.2812 22.6781 41.6492 22.6781C41.637 22.0953 41.6273 21.6971 41.6201 21.4834H40.0361L40.446 17.9574H39.87L39.4841 21.4834H37.2521L37.638 17.9574H37.062L36.5166 22.649H32.8686ZM33.1656 14.5188H25.4376L25.7933 11.459H33.5213L33.1656 14.5188ZM38.0647 14.2857L38.1664 13.4114H37.5904L37.4887 14.2857H38.0647ZM40.3984 13.4114L40.2967 14.2857H40.8727L40.9744 13.4114H40.3984ZM43.1047 14.2857H43.6327L43.7344 13.4114H43.2064L43.1047 14.2857ZM27.98 22.9987H24.308L25.2361 15.0142H33.4441L32.5566 22.649H28.0206L27.98 22.9987ZM29.2775 19.2687L29.43 17.9574H28.566L28.4135 19.2687H29.2775ZM42.5493 19.0647C42.8213 19.0647 42.9846 19.0356 43.0394 18.9773C43.1102 18.919 43.1569 18.7927 43.1794 18.5985L43.254 17.9574H42.678L42.5493 19.0647Z" fill="black" fill-opacity="0.7"/>
</svg>
