<svg width="24" height="24" viewBox="0 0 24 24" fill="none" xmlns="http://www.w3.org/2000/svg">
<path d="M20.0688 14.9914L19.1728 14.5473L19.0246 14.8462L19.0856 15.1742L20.0688 14.9914ZM16.2965 18.9102L16.5222 17.936L16.1521 17.8502L15.8184 18.0319L16.2965 18.9102ZM20.5535 19.8966L20.7793 18.9224H20.7793L20.5535 19.8966ZM20.9162 19.5495L19.933 19.7323V19.7323L20.9162 19.5495ZM20 11C20 12.276 19.702 13.4794 19.1728 14.5473L20.9647 15.4355C21.6278 14.0977 22 12.5909 22 11H20ZM12 3C16.4183 3 20 6.58172 20 11H22C22 5.47715 17.5228 1 12 1V3ZM4 11C4 6.58172 7.58172 3 12 3V1C6.47715 1 2 5.47715 2 11H4ZM12 19C7.58172 19 4 15.4183 4 11H2C2 16.5228 6.47715 21 12 21V19ZM15.8184 18.0319C14.6846 18.649 13.3848 19 12 19V21C13.7271 21 15.3547 20.5613 16.7746 19.7885L15.8184 18.0319ZM20.7793 18.9224L16.5222 17.936L16.0707 19.8844L20.3278 20.8708L20.7793 18.9224ZM19.933 19.7323C19.8408 19.2363 20.2878 18.8085 20.7793 18.9224L20.3278 20.8708C21.2406 21.0823 22.0706 20.2879 21.8994 19.3667L19.933 19.7323ZM19.0856 15.1742L19.933 19.7323L21.8994 19.3667L21.0519 14.8086L19.0856 15.1742Z" fill="#1A1A1A"/>
</svg>
