<svg width="24" height="24" viewBox="0 0 24 24" fill="none" xmlns="http://www.w3.org/2000/svg">
<path d="M15.8791 6.03767L14.9561 6.21145L15.5565 6.91786L15.5571 6.91856L16.6505 8.20492C16.4616 7.71021 16.2743 7.215 16.0897 6.72L16.0888 6.71753C16.0066 6.49608 15.9227 6.26997 15.8791 6.03767ZM15.8791 6.03767L14.9557 6.21098M15.8791 6.03767C15.7883 5.55515 16 5.11681 16.3892 4.91425L14.9557 6.21098M14.9557 6.21098L14.8798 6.12169M14.9557 6.21098L15.7776 8.72202C15.5672 8.1721 15.3583 7.62082 15.1527 7.06934L15.1522 7.0679C15.149 7.05929 15.1457 7.05052 15.1424 7.04158C15.0656 6.83507 14.9559 6.53963 14.8963 6.22213C14.89 6.18865 14.8845 6.15516 14.8798 6.12169M14.8798 6.12169C14.7603 5.27199 15.1499 4.43194 15.9275 4.0272L15.9283 4.02679C16.7798 3.5846 17.7246 3.90586 18.2844 4.55167L18.2852 4.55254C18.4781 4.77559 18.6268 5.02339 18.7369 5.25809M14.8798 6.12169L11.5902 2.25155C11.5829 2.24291 11.5736 2.23177 11.5626 2.21861C11.4981 2.14107 11.3751 1.99332 11.2431 1.87234L11.2431 1.87232L11.2384 1.86803C10.983 1.63709 10.6614 1.4472 10.2761 1.37393C9.88422 1.29942 9.49917 1.3596 9.14947 1.51527L9.14947 1.51526L9.14472 1.5174C8.77625 1.68373 8.42262 1.96855 8.2076 2.35956C7.63729 1.89705 6.91267 1.77523 6.20854 2.07844L6.20854 2.07843L6.20619 2.07945C5.8716 2.22455 5.57588 2.45273 5.36372 2.77436C5.15481 3.09103 5.06439 3.44118 5.0444 3.77708L5.04433 3.77834C5.0173 4.24235 5.15812 4.61391 5.32476 4.89485C5.27297 4.91426 5.22164 4.93609 5.17089 4.96037L5.16997 4.96081C4.43143 5.31524 3.92165 6.11822 4.09331 7.04589L4.0933 7.04589L4.09438 7.05155C4.17734 7.48588 4.40361 7.86293 4.62639 8.12627C4.68642 8.19838 4.7465 8.27044 4.80662 8.34245C4.61583 8.4164 4.43277 8.52267 4.2645 8.66179C3.44817 9.33673 3.34047 10.4707 3.91085 11.3139L3.91215 11.3158C4.00529 11.4528 4.11184 11.5774 4.17718 11.6538C4.18491 11.6628 4.19207 11.6712 4.19855 11.6788C4.51919 12.0561 4.83986 12.4332 5.16049 12.8102C6.12184 13.9408 7.08279 15.0709 8.04136 16.2023L8.0424 16.2035C8.71167 16.9909 9.47196 17.7432 10.3923 18.3488L10.3938 18.3498C11.6258 19.1572 13.0339 19.7423 14.6783 19.6809C16.4914 19.6142 17.8985 18.7556 19.0439 17.5987C20.2573 16.3744 21.2454 14.9097 21.4139 12.6915C21.5128 11.5159 21.0718 10.2451 20.572 9.17584L20.5719 9.17556C20.4045 8.81786 20.2371 8.45952 20.0696 8.10085C19.6272 7.15385 19.1837 6.2045 18.7369 5.25809M18.7369 5.25809C18.7367 5.25766 18.7365 5.25723 18.7363 5.25681L17.832 5.6837L18.7375 5.25937C18.7373 5.25894 18.7371 5.25852 18.7369 5.25809ZM16.9663 9.02803C17.0438 9.22713 17.0489 9.40745 16.8461 9.52979L16.6317 9.17254L16.6651 9.14516L16.6674 9.14322L16.9282 8.92907C16.9409 8.96206 16.9536 8.99505 16.9663 9.02803ZM16.6629 9.146L16.6314 9.17199L16.6247 9.16085L16.6242 9.15991L16.4801 8.91987L16.8152 8.63508C16.8527 8.73267 16.8902 8.83023 16.9277 8.92776L16.6653 9.14405L16.6629 9.146ZM16.8097 8.62078L16.4765 8.91385L16.3316 8.67228C16.3777 8.64465 16.4584 8.60699 16.5697 8.59195C16.6492 8.5812 16.7277 8.58431 16.8011 8.59826C16.8039 8.60577 16.8068 8.61328 16.8097 8.62078ZM8.41098 11.6347L8.52855 11.76L8.41098 11.6347ZM8.52903 11.7605L8.54883 11.7816L8.52903 11.7605Z" fill="white" stroke="#1A1A1A" stroke-width="2"/>
<path d="M7.10248 14.516L7.08123 14.4963L7.10248 14.516ZM7.10248 14.516L7.10336 14.5168L7.10248 14.516ZM6.973 4.2353C6.61718 4.4272 6.28451 4.73626 6.0976 5.14145C5.49609 4.72032 4.76469 4.6499 4.0837 5.00201L4.0837 5.00201L4.08143 5.00319C3.7579 5.17153 3.47901 5.42 3.29006 5.75578C3.10401 6.0864 3.03851 6.44205 3.04225 6.77852L3.04227 6.77979C3.04803 7.24456 3.21471 7.60526 3.40074 7.87375C3.35045 7.89676 3.30078 7.92215 3.25188 7.94996L3.251 7.95046C2.53928 8.35609 2.0874 9.19303 2.32406 10.1063L2.32405 10.1063L2.32552 10.1118C2.43891 10.5392 2.69121 10.8994 2.93201 11.1464C2.99697 11.2141 3.06199 11.2817 3.12704 11.3493C2.94194 11.4365 2.76682 11.5554 2.60879 11.7061C1.84209 12.4369 1.81463 13.5757 2.44306 14.3765L2.44448 14.3783C2.54706 14.5084 2.66213 14.6252 2.73269 14.6968C2.74104 14.7053 2.74877 14.7131 2.75578 14.7203C3.10224 15.074 3.44872 15.4275 3.79516 15.7811C4.83383 16.841 5.87208 17.9005 6.90804 18.9615L6.90916 18.9626C7.6323 19.7008 8.44375 20.3976 9.40446 20.9368L9.40608 20.9377C10.692 21.6562 12.1378 22.1406 13.7738 21.9634C15.5779 21.7689 16.921 20.813 17.982 19.578C19.1059 18.2713 19.988 16.7406 19.9997 14.5163C20.0154 13.3367 19.4859 12.1001 18.9119 11.0688L18.9118 11.0685C18.7196 10.7235 18.5274 10.3778 18.3349 10.0319C17.8269 9.11844 17.3176 8.20272 16.8051 7.29018C16.6788 7.06383 16.5129 6.82714 16.3048 6.61826L16.304 6.61743C15.7 6.01271 14.7348 5.75889 13.9167 6.26003L13.9159 6.2605C13.1687 6.71907 12.8394 7.58451 13.0185 8.42366L9.46417 4.79515L8.74979 5.49492L9.46416 4.79515C9.45623 4.78705 9.4462 4.77659 9.43434 4.76424C9.36451 4.69145 9.23144 4.55274 9.09117 4.44137L9.09118 4.44135L9.08615 4.4374C8.81515 4.22504 8.48095 4.05831 8.09142 4.0124C7.69528 3.96571 7.31543 4.05289 6.97759 4.23284L6.97758 4.23283L6.973 4.2353ZM15.3048 11.1756C15.3961 11.3688 15.4139 11.5483 15.2203 11.6846L14.9813 11.3434L15.0126 11.3137L15.0148 11.3116L15.2598 11.0796C15.2748 11.1116 15.2898 11.1436 15.3048 11.1756ZM15.0105 11.3147L14.9809 11.3428L14.9734 11.3322L14.9728 11.3313L14.8122 11.102L15.1263 10.7943C15.1706 10.889 15.2149 10.9837 15.2592 11.0783L15.0127 11.3126L15.0105 11.3147ZM15.1199 10.7804L14.8082 11.0963L14.6466 10.8655C14.6906 10.8347 14.7685 10.7914 14.8784 10.7686C14.957 10.7523 15.0355 10.7498 15.1097 10.7586C15.1131 10.7659 15.1165 10.7731 15.1199 10.7804Z" fill="white" stroke="#1A1A1A" stroke-width="2"/>
</svg>
