<svg width="24" height="24" viewBox="0 0 24 24" fill="none" xmlns="http://www.w3.org/2000/svg">
<path d="M20.0688 15.9914L19.1728 15.5473L19.0246 15.8462L19.0856 16.1742L20.0688 15.9914ZM16.2965 19.9102L16.5222 18.936L16.1521 18.8502L15.8184 19.0319L16.2965 19.9102ZM20.5535 20.8966L20.7793 19.9224H20.7793L20.5535 20.8966ZM20.9162 20.5495L19.933 20.7323L20.9162 20.5495ZM20 12C20 13.276 19.702 14.4794 19.1728 15.5473L20.9647 16.4355C21.6278 15.0977 22 13.5909 22 12H20ZM12 4C16.4183 4 20 7.58172 20 12H22C22 6.47715 17.5228 2 12 2V4ZM4 12C4 7.58172 7.58172 4 12 4V2C6.47715 2 2 6.47715 2 12H4ZM12 20C7.58172 20 4 16.4183 4 12H2C2 17.5228 6.47715 22 12 22V20ZM15.8184 19.0319C14.6846 19.649 13.3848 20 12 20V22C13.7271 22 15.3548 21.5613 16.7746 20.7885L15.8184 19.0319ZM20.7793 19.9224L16.5222 18.936L16.0708 20.8844L20.3278 21.8708L20.7793 19.9224ZM19.933 20.7323C19.8408 20.2363 20.2878 19.8085 20.7793 19.9224L20.3278 21.8708C21.2406 22.0823 22.0706 21.2879 21.8994 20.3667L19.933 20.7323ZM19.0856 16.1742L19.933 20.7323L21.8994 20.3667L21.0519 15.8086L19.0856 16.1742Z" fill="#1A1A1A"/>
<line x1="7.5" y1="9.5" x2="14.5" y2="9.5" stroke="#1A1A1A" stroke-linecap="round"/>
<line x1="7.5" y1="13.5" x2="16.5" y2="13.5" stroke="#1A1A1A" stroke-linecap="round"/>
</svg>
