<svg width="22" height="22" viewBox="0 0 22 22" fill="none" xmlns="http://www.w3.org/2000/svg">
<g clip-path="url(#clip0_7104_27947)">
<path d="M19.3657 6.54797L19.3659 6.54853C19.8404 7.667 20.0789 8.85474 20.0833 10.0828C20.0831 11.3084 19.8451 12.495 19.3706 13.6134L19.3704 13.614C18.9109 14.6988 18.2618 15.6659 17.4246 16.5032C16.5954 17.3323 15.6282 17.984 14.5495 18.443C14.5337 18.4492 14.5198 18.455 14.5084 18.4598C14.4918 18.4668 14.4763 18.4736 14.468 18.4772L14.4541 18.4832L14.4417 18.4879L14.4226 18.496C14.1004 18.6323 13.7662 18.7454 13.4232 18.8385L13.4182 18.8399C12.6382 19.0561 11.8275 19.1667 11.0024 19.1667C10.3829 19.1667 9.77436 19.1031 9.17568 18.9833C8.82443 18.9131 8.47491 18.8169 8.12064 18.7005C7.89232 18.6213 7.67891 18.5414 7.47074 18.4516L7.47075 18.4516L7.46464 18.449C6.37987 17.9896 5.4127 17.3404 4.57546 16.5032C3.7428 15.6705 3.08909 14.6987 2.6298 13.6144C2.15859 12.4976 1.91667 11.3099 1.91667 10.081C1.91667 8.8547 2.15468 7.6675 2.6294 6.54853L2.62963 6.54797C3.08816 5.46533 3.74148 4.49724 4.57636 3.65788C5.40877 2.8257 6.38023 2.17233 7.46406 1.71321C8.58065 1.24204 9.77317 1 10.9976 1C12.2212 1 13.4092 1.24166 14.5317 1.71343C15.6161 2.17283 16.5829 2.82183 17.4198 3.65879C18.2526 4.49155 18.9064 5.46351 19.3657 6.54797Z" stroke="white" stroke-width="2"/>
<path d="M13.9165 8.85089L13.9166 8.85117C14.0818 9.24065 14.1651 9.65449 14.1667 10.0833C14.1665 10.511 14.0835 10.9242 13.9183 11.3137L13.9182 11.314C13.7579 11.6924 13.5317 12.0294 13.2398 12.3214C12.9511 12.61 12.6146 12.837 12.2389 12.997C12.2327 12.9995 12.2272 13.0018 12.2228 13.0036L12.2064 13.0107C12.2059 13.0109 12.2054 13.0111 12.205 13.0113L12.201 13.0128L12.1914 13.0169C12.0805 13.0638 11.9649 13.103 11.8454 13.1354L11.8454 13.1354L11.8429 13.1361C11.5712 13.2114 11.2887 13.25 11.0009 13.25C10.785 13.25 10.5727 13.2278 10.3633 13.1859C10.2424 13.1617 10.121 13.1284 9.99659 13.0876C9.91591 13.0596 9.84197 13.0319 9.77064 13.0011L9.77064 13.0011L9.76759 12.9998C9.38916 12.8395 9.05217 12.6133 8.76022 12.3214C8.46992 12.0311 8.24209 11.6924 8.08189 11.3142C7.91764 10.9249 7.83333 10.5111 7.83333 10.0824C7.83333 9.65447 7.91633 9.24091 8.08167 8.85117L8.08179 8.85089C8.24161 8.47352 8.46925 8.13608 8.76067 7.84306C9.05085 7.553 9.38933 7.32534 9.76727 7.16522C10.1565 7.001 10.5721 6.91663 10.9991 6.91663C11.4257 6.91663 11.8397 7.00081 12.2313 7.16533C12.6094 7.32559 12.9462 7.55171 13.2381 7.84352C13.5284 8.13387 13.7563 8.47261 13.9165 8.85089Z" stroke="white"/>
<path d="M7.36852 21L8.47963 19.3334H13.5204L14.6315 21H7.36852Z" stroke="white" stroke-width="2"/>
</g>
<defs>
<clipPath id="clip0_7104_27947">
<rect width="22" height="22" fill="white"/>
</clipPath>
</defs>
</svg>
