<svg width="24" height="24" viewBox="0 0 24 24" fill="none" xmlns="http://www.w3.org/2000/svg">
<g clip-path="url(#clip0_3038_4439)">
<path d="M3.63866 7.19114C3.27497 6.7755 2.64321 6.73339 2.22757 7.09707C1.81194 7.46076 1.76983 8.09252 2.13351 8.50816L3.63866 7.19114ZM21.6033 8.50809C21.967 8.09246 21.9249 7.46069 21.5093 7.09701C21.0936 6.73333 20.4619 6.77545 20.0982 7.19108L21.6033 8.50809ZM12.019 17.9431L12.7715 18.6016L12.019 17.9431ZM2.13351 8.50816L10.9654 18.6016L12.4705 17.2845L3.63866 7.19114L2.13351 8.50816ZM12.7715 18.6016L21.6033 8.50809L20.0982 7.19108L11.2664 17.2845L12.7715 18.6016ZM10.9654 18.6016C11.4435 19.148 12.2935 19.1479 12.7715 18.6016L11.2664 17.2845C11.5851 16.9203 12.1518 16.9203 12.4705 17.2845L10.9654 18.6016Z" fill="#1A1A1A"/>
</g>
<defs>
<clipPath id="clip0_3038_4439">
<rect width="24" height="24" fill="white" transform="translate(0 24) rotate(-90)"/>
</clipPath>
</defs>
</svg>
