<svg width="24" height="24" viewBox="0 0 24 24" fill="none" xmlns="http://www.w3.org/2000/svg">
<path d="M10.1904 4.78244C9.77475 4.41876 9.73264 3.78699 10.0963 3.37136C10.46 2.95573 11.0918 2.91361 11.5074 3.2773L10.1904 4.78244ZM11.5073 20.7276C11.0917 21.0913 10.4599 21.0492 10.0963 20.6335C9.73258 20.2179 9.7747 19.5861 10.1903 19.2225L11.5073 20.7276ZM19.7883 11.852L20.4468 11.0994L19.7883 11.852ZM19.7883 12.153L19.1298 11.4004L19.7883 12.153ZM11.5074 3.2773L20.4468 11.0994L19.1298 12.6045L10.1904 4.78244L11.5074 3.2773ZM20.4468 12.9056L11.5073 20.7276L10.1903 19.2225L19.1298 11.4004L20.4468 12.9056ZM20.4468 11.0994C20.9932 11.5775 20.9932 12.4275 20.4468 12.9056L19.1298 11.4004C18.7655 11.7192 18.7655 12.2858 19.1298 12.6045L20.4468 11.0994Z" fill="#1A1A1A"/>
</svg>
