<svg width="12" height="13" viewBox="0 0 12 13" fill="none" xmlns="http://www.w3.org/2000/svg">
<g clip-path="url(#clip0_819_6860)">
<path d="M4.44784 13C3.51436 13 2.58033 12.9972 1.67143 12.9922C0.705554 12.9871 0.0033518 12.2737 0 11.2967C0 9.44631 0 7.5858 0 5.76671C0 4.78582 0.713933 4.07072 1.69433 4.0668H2.25632H3.08812V3.99854C3.08812 3.76651 3.08812 3.53411 3.08812 3.30134C3.08812 2.77928 3.08812 2.2382 3.08812 1.70774C3.09427 0.856669 3.61883 0.200878 4.42549 0.0358111C4.54699 0.0125318 4.67049 0.00128665 4.79419 0.0022382H5.13943C6.10772 0.000746065 7.07379 0 8.03762 0C8.78693 0 9.5368 0 10.2872 0C11.1693 0 11.8341 0.559549 11.9804 1.4151C11.9945 1.50879 12.0007 1.6035 11.9989 1.69823V2.48999C11.9989 4.04386 11.9989 5.65033 11.9989 7.23049C11.9989 8.1101 11.4179 8.7866 10.5559 8.91417C10.456 8.92759 10.3551 8.93376 10.2543 8.93264H10.1185H9.98669H9.96937H9.49118H8.91523C8.91523 8.9511 8.91523 8.96901 8.91523 8.98859C8.91523 9.25158 8.91523 9.51438 8.91523 9.777C8.91523 10.2694 8.91523 10.778 8.91523 11.2794C8.90964 12.2866 8.22029 12.9916 7.23933 12.9966C6.29691 12.9978 5.35897 13 4.44784 13ZM1.73847 5.15624C1.30832 5.15624 1.08989 5.37391 1.08933 5.80196V11.2469C1.08933 11.6912 1.30664 11.9072 1.75355 11.9072H7.16056C7.60132 11.9072 7.82478 11.6834 7.82533 11.2453C7.82533 9.43493 7.82533 7.62572 7.82533 5.81763C7.82533 5.38062 7.60579 5.15904 7.17341 5.15904H1.73847V5.15624ZM10.2476 7.84208C10.6945 7.84208 10.9107 7.62609 10.9107 7.18293C10.9107 5.3726 10.9107 3.56339 10.9107 1.75531C10.9107 1.31046 10.6939 1.09392 10.247 1.09392H4.84C4.39309 1.09392 4.17634 1.31102 4.17578 1.75698C4.17578 2.28856 4.17578 2.82013 4.17578 3.3517V4.06624H5.16065H6.0148C6.50919 4.06624 6.91197 4.06624 7.28346 4.07072C7.70361 4.07047 8.10743 4.23373 8.40969 4.52604C8.71195 4.81836 8.88901 5.21686 8.9035 5.63746C8.92026 6.13322 8.91802 6.63681 8.91579 7.12362C8.91579 7.34128 8.91579 7.55895 8.91579 7.77605V7.84432L10.2476 7.84208Z" fill="#9A9A9A"/>
</g>
<defs>
<clipPath id="clip0_819_6860">
<rect width="12" height="13" fill="white"/>
</clipPath>
</defs>
</svg>
