<svg width="24" height="24" viewBox="0 0 24 24" fill="none" xmlns="http://www.w3.org/2000/svg">
<circle cx="12" cy="8" r="5" stroke="#1A1A1A" stroke-width="2"/>
<path d="M21 22V20C21 17.7909 19.2091 16 17 16H7C4.79086 16 3 17.7909 3 20V22" stroke="#1A1A1A" stroke-width="2" stroke-linecap="round"/>
<path d="M10.8118 22.8173L9.19827 21.3182C9.13542 21.2605 9.08556 21.1918 9.05153 21.1163C9.01751 21.0407 9 20.9597 9 20.8779C9 20.7961 9.01751 20.7151 9.05153 20.6395C9.08556 20.564 9.13542 20.4953 9.19827 20.4375L9.24573 20.3938C9.51013 20.1502 9.94403 20.1502 10.2084 20.3938L11.3 21.4057L14.7915 18.1827C15.0559 17.9391 15.4898 17.9391 15.7542 18.1827L15.8017 18.2264C16.0661 18.47 16.0661 18.8635 15.8017 19.1071L11.7881 22.8173C11.5101 23.0609 11.083 23.0609 10.8118 22.8173Z" fill="#1A1A1A"/>
</svg>
