<svg width="40" height="40" viewBox="0 0 40 40" fill="none" xmlns="http://www.w3.org/2000/svg">
<path d="M26.1448 13.5959L13.5958 26.1449C13.268 26.4728 13.268 27.0087 13.5958 27.3365C13.9236 27.6644 14.4596 27.6644 14.7874 27.3365L27.3365 14.7875C27.6643 14.4597 27.6643 13.9237 27.3365 13.5959C27.0086 13.268 26.4727 13.268 26.1448 13.5959Z" fill="#404040"/>
<path d="M27.3365 26.1448L14.7875 13.5958C14.4596 13.268 13.9265 13.2651 13.5958 13.5958C13.2652 13.9265 13.268 14.4596 13.5958 14.7874L26.1449 27.3365C26.4727 27.6643 27.0058 27.6672 27.3365 27.3365C27.6672 27.0058 27.6643 26.4727 27.3365 26.1448Z" fill="#404040"/>
</svg>
