<svg width="125" height="125" viewBox="0 0 125 125" fill="none" xmlns="http://www.w3.org/2000/svg">
<path d="M62.5 7.8125C77.004 7.8125 90.914 13.5742 101.17 23.8301C111.426 34.086 117.188 47.996 117.188 62.5C117.188 77.004 111.426 90.914 101.17 101.17C90.914 111.426 77.004 117.188 62.5 117.188C47.996 117.188 34.086 111.426 23.8301 101.17C13.5742 90.914 7.8125 77.004 7.8125 62.5C7.8125 47.996 13.5742 34.086 23.8301 23.8301C34.086 13.5742 47.996 7.8125 62.5 7.8125ZM55.6875 73.2891L43.5391 61.1328C43.1035 60.6973 42.5865 60.3518 42.0175 60.1161C41.4485 59.8804 40.8386 59.7591 40.2227 59.7591C39.6067 59.7591 38.9969 59.8804 38.4278 60.1161C37.8588 60.3518 37.3418 60.6973 36.9062 61.1328C36.0267 62.0124 35.5325 63.2053 35.5325 64.4492C35.5325 65.6931 36.0267 66.8861 36.9062 67.7656L52.375 83.2344C52.8093 83.6721 53.3259 84.0195 53.8951 84.2566C54.4643 84.4936 55.0748 84.6157 55.6914 84.6157C56.308 84.6157 56.9185 84.4936 57.4877 84.2566C58.0569 84.0195 58.5735 83.6721 59.0078 83.2344L91.0391 51.1953C91.4804 50.7616 91.8315 50.2448 92.0721 49.6747C92.3127 49.1046 92.4381 48.4926 92.4409 47.8738C92.4438 47.255 92.3242 46.6418 92.0889 46.0695C91.8536 45.4972 91.5073 44.9772 91.07 44.5394C90.6327 44.1016 90.1131 43.7547 89.5411 43.5187C88.9691 43.2828 88.356 43.1624 87.7372 43.1645C87.1185 43.1667 86.5062 43.2913 85.9359 43.5312C85.3655 43.7712 84.8483 44.1217 84.4141 44.5625L55.6875 73.2891Z" fill="#00B42A"/>
</svg>
