<svg width="28" height="28" viewBox="0 0 28 28" fill="none" xmlns="http://www.w3.org/2000/svg">
<path d="M2.00425 11.5088C1.93853 9.58982 2.63773 7.72295 3.94896 6.31645C5.26019 4.90994 7.07675 4.07823 9.00142 4.00321C9.94677 3.97546 10.8863 4.1598 11.7506 4.54263C12.6149 4.92546 13.3818 5.49697 13.9948 6.21496C14.6083 5.49488 15.3768 4.92204 16.2432 4.53909C17.1095 4.15615 18.0514 3.97298 18.9986 4.00321C20.9232 4.07823 22.7398 4.90994 24.051 6.31645C25.3623 7.72295 26.0615 9.58982 25.9958 11.5088C25.9958 15.2731 23.2357 17.6595 20.8011 19.7652C20.4934 20.0304 20.1836 20.2997 19.8779 20.5701L18.9162 21.4269C17.7135 22.5723 16.451 23.6535 15.1339 24.666C14.7961 24.884 14.4024 25 14 25C13.5976 25 13.2039 24.884 12.8661 24.666C11.5897 23.6835 10.3648 22.636 9.19648 21.5278L8.12521 20.5732C7.82897 20.3101 7.53064 20.0522 7.23544 19.7964C6.57395 19.2231 5.9066 18.6448 5.28017 18.0379" stroke="#1A1A1A" stroke-width="2"/>
<path d="M1 15.4565H6.32203L9.29787 9L12.2892 18L15 12L16.0656 15.4565H20" stroke="#FF556E" stroke-linecap="round" stroke-linejoin="round"/>
</svg>
