<svg width="24" height="24" viewBox="0 0 24 24" fill="none" xmlns="http://www.w3.org/2000/svg">
<circle cx="12" cy="12" r="10" stroke="#1A1A1A" stroke-width="2"/>
<g clip-path="url(#clip0_2_2033)">
<path d="M7.12265 9.19486C6.9105 8.95241 6.54197 8.92784 6.29952 9.13999C6.05707 9.35214 6.0325 9.72067 6.24465 9.96312L7.12265 9.19486ZM17.602 9.96309C17.8142 9.72063 17.7896 9.3521 17.5472 9.13995C17.3047 8.92781 16.9362 8.95238 16.724 9.19483L17.602 9.96309ZM11.8356 15.4668L12.2746 15.0827L11.8356 15.4668ZM12.0112 15.4668L12.4502 15.8509L12.0112 15.4668ZM6.24465 9.96312L11.3966 15.8509L12.2746 15.0827L7.12265 9.19486L6.24465 9.96312ZM12.4502 15.8509L17.602 9.96309L16.724 9.19483L11.5722 15.0827L12.4502 15.8509ZM11.3966 15.8509C11.6755 16.1697 12.1713 16.1697 12.4502 15.8509L11.5722 15.0827C11.7581 14.8702 12.0886 14.8702 12.2746 15.0827L11.3966 15.8509Z" fill="#1A1A1A"/>
</g>
<defs>
<clipPath id="clip0_2_2033">
<rect width="14" height="14" fill="white" transform="translate(5 19) rotate(-90)"/>
</clipPath>
</defs>
</svg>
