<svg width="107" height="27" viewBox="0 0 107 27" fill="none" xmlns="http://www.w3.org/2000/svg">
<g clip-path="url(#clip0_1642_7255)">
<path d="M20.7969 25.3393C20.9863 25.769 21.3532 26.1406 21.9095 26.431C21.6373 24.631 20.7259 21.5071 21.2585 22.9355C21.7793 24.3755 22.3711 26.6051 22.3711 26.64C22.5132 26.7213 22.7025 26.8026 22.9748 26.8955C24.1702 27.1858 24.8922 26.849 25.129 25.8851C25.0698 25.7458 24.9751 25.5135 24.8449 25.1884C24.9988 25.0606 26.4901 25.5716 26.5967 24.3174C26.4073 23.6206 25.2355 20.2064 25.0343 19.5097C25.5196 19.498 25.9693 19.4864 26.4073 19.4864C26.4073 19.8 26.3955 20.1484 26.3836 20.5084C26.3363 21.6 26.4191 22.3897 26.6203 22.9006C26.9281 23.5277 27.4489 23.7716 28.1946 23.6206C28.9047 23.4813 29.2835 23.1097 29.6859 22.529C29.7925 22.3664 29.9345 22.1574 30.2659 22.4245L30.621 21.298C30.7157 21.1006 30.5382 22.9471 30.6328 23.1329C31.1536 24.0968 32.4201 23.1793 32.7752 23.3419C32.7752 22.6451 32.7397 21.9948 32.9409 21.7277C32.9409 21.7277 32.9291 20.009 32.8344 19.138C32.9172 19.1497 35.3318 19.3587 35.8645 19.2774C35.9355 19.3935 39.084 23.8064 39.5574 24.3987C39.7823 24.689 40.4688 25.2348 40.7529 25.3277C41.0369 25.4322 43.2622 26.2219 43.1438 23.2955C43.5936 23.2839 43.1556 22.6335 43.0609 22.3432C43.0609 22.3316 43.0728 22.3316 43.0728 22.3432C43.1911 22.5639 43.7001 23.1677 43.925 23.2722C45.0139 23.7368 45.3098 22.5639 45.0613 21.1471C45.0258 21.1006 42.1259 17.9303 41.8418 17.5703C41.8418 17.5471 44.0789 16.1651 44.8364 15.3987C45.807 14.4 46.4461 13.2968 46.7184 12.1122C46.9077 11.4271 46.9551 10.7651 46.8722 10.08C46.8249 9.38321 46.6355 8.69805 46.3159 8.04773C46.0437 7.44385 45.6768 6.88643 45.2033 6.38708C44.7772 5.92256 44.2919 5.5045 43.7711 5.10966C42.8597 4.50579 41.8063 3.99482 40.6108 3.58837C36.6575 2.25289 33.7576 2.46192 31.6034 2.64772C30.9761 2.7174 29.8872 2.96127 29.7333 3.30966C29.6978 3.37934 29.7806 3.46063 29.8517 3.44902C34.3021 2.94966 37.3559 3.69289 37.1546 3.68127C35.0596 3.56514 33.2842 3.68127 31.6626 3.72772C30.763 3.75095 29.3427 3.85547 29.3427 3.85547C29.2362 3.95998 29.0705 4.11095 28.8692 4.36643C28.3011 5.26063 29.2125 6.39869 29.2125 6.39869C29.5676 6.79353 28.6799 6.32902 28.1709 6.43353C27.1648 6.66579 27.224 8.46579 27.1767 8.72127C26.9873 9.34837 26.4546 13.5987 26.3363 14.1097C26.3363 14.1213 26.3363 14.1213 26.3363 14.1329C26.3363 14.1445 26.3363 14.1445 26.3363 14.1561V14.1677V14.1793C26.2416 14.191 23.9453 14.2026 23.3535 14.1793C23.2588 13.8426 18.3113 1.97418 17.8023 1.32385C17.3289 0.650305 16.8436 0.232241 16.4766 0.441273C16.4648 0.441273 16.4648 0.452886 16.4648 0.452886C16.5358 0.638692 16.737 0.998692 16.5477 0.940628C13.3992 -0.836146 12.0854 0.371596 11.6948 1.06837C11.4581 1.49805 9.07897 5.73676 10.1916 3.13547C10.2626 2.9845 10.9965 1.42837 11.2213 0.952241C11.2332 0.929015 11.2213 0.894176 11.1858 0.882563C10.8071 0.812886 10.5822 0.940628 10.2271 1.2774C8.30961 3.32127 6.73539 7.5716 6.02521 9.05805C5.51625 10.1032 3.85917 13.5987 3.27919 15.2361C2.71105 15.0387 1.05397 15.3755 1.24335 15.7587C1.72864 16.7458 1.68129 17.4658 1.62211 17.8026C1.59844 17.8955 1.69313 17.9768 1.78782 17.9535C2.91227 17.6516 3.69346 17.4774 4.08406 17.4193C4.92444 17.3032 4.32079 17.5239 3.74081 17.7213C3.14899 17.9187 2.17842 18.3368 2.08373 18.5458C1.44457 20.0903 0.0952328 23.1097 0.000542523 23.5626C-0.0468026 24.1897 0.107069 24.6193 0.462158 24.8864C0.817246 25.1419 1.27886 25.1768 1.81149 25.0026C2.35596 24.8284 2.86492 24.48 3.33837 23.969C3.58694 23.9922 3.85917 24.1897 3.85917 24.1897C4.61669 23.4697 3.64612 24.689 3.53959 25.0839C3.24368 26.2335 4.86525 25.3161 5.09014 25.8851C5.76481 25.8503 6.21459 24.7819 6.75906 23.4232C6.75906 23.4232 7.75331 21.1239 7.99003 20.4968C8.59368 20.4619 18.8321 19.6955 18.8321 19.6955C19.057 20.311 20.4536 24.1432 20.7969 25.3393ZM13.5886 7.46708C13.9555 8.33805 14.4763 9.5574 15.1865 11.1135C15.8848 12.6813 16.2991 13.6451 16.4293 14.0168C16.4293 14.0168 12.9968 14.04 10.5348 14.3768C11.6474 11.6593 12.6654 9.35998 13.5886 7.46708ZM40.2084 11.0206C39.9953 11.4968 39.084 13.111 35.2608 13.4245C35.2016 13.4477 34.3731 13.5406 32.7397 13.68C32.7397 12.2748 32.9528 8.66321 33.0593 7.98966C33.805 7.88514 34.3849 7.86192 34.7755 7.87353C36.6575 7.94321 38.3738 8.24514 39.6047 9.25547C40.4096 9.89418 40.4925 10.3935 40.2084 11.0206Z" fill="black" fill-opacity="0.75"/>
<path d="M106.989 22.6454C106.824 22.088 106.255 21.5073 105.368 20.137C104.906 19.4286 103.912 18.0118 103.912 18.0118C102.622 16.3047 99.1773 11.9267 99.1063 11.857C99.2246 11.7641 99.5087 11.6131 99.6271 11.7989C100.763 10.6725 102.918 8.61699 102.918 8.61699C103.119 8.51247 102.787 9.31376 102.787 9.37182C102.787 9.38344 102.799 9.39505 102.823 9.39505C103.142 9.19763 105.439 6.60795 105.971 6.07376C106.551 5.4815 106.445 5.00537 106.397 4.59892C106.397 4.5757 106.326 4.47118 106.315 4.4944C105.415 5.24924 104.326 6.21311 103.995 6.42215C103.924 6.4686 103.734 6.54989 103.888 6.36408C104.397 5.91118 105.675 4.61053 106.22 3.99505C106.244 3.97182 106.255 3.9486 106.244 3.91376C106.161 3.63505 105.782 2.48537 105.356 2.11376C104.847 1.67247 104.456 1.47505 103.675 1.60279C103.521 1.66086 103.438 1.77699 103.166 1.97441C103.166 1.97441 103.154 1.97441 103.154 1.96279L103.332 1.62602C103.332 1.61441 102.61 1.60279 102.385 1.50989C102.065 1.81182 101.083 2.81053 99.4969 4.33182C99.4614 4.36666 99.4022 4.32021 99.4377 4.27376C99.7454 3.93699 101.911 1.40537 101.959 1.35892C101.604 1.02215 101.213 0.906018 100.846 1.01053C100.467 1.12666 98.8341 3.10086 98.6565 3.30989C97.3782 4.8544 94.8807 7.16537 94.8452 7.16537C94.8452 7.16537 92.3951 3.1357 91.6258 0.813115C91.4719 0.360212 90.8801 0.255696 90.1581 0.127954C90.8209 2.02086 92.762 5.73699 92.7265 5.70215C91.0931 3.73957 89.5307 0.255696 89.4716 0.0698891L88.7614 0.0234375C87.27 0.081502 86.4296 0.278921 86.0864 1.46344C86.1574 1.54473 86.7966 2.52021 86.9149 2.99634C86.9149 3.01957 86.9504 3.25182 86.8912 3.1357C86.69 2.74086 86.039 1.57957 85.9325 1.82344C85.8023 2.0557 85.9799 2.52021 85.8023 2.85699C86.0509 3.33311 87.8381 6.13182 87.8145 6.2015C87.7435 6.2944 85.5419 3.00795 85.5419 3.00795C85.104 3.24021 84.8791 3.51892 84.8672 3.82086C84.8317 4.0415 84.9146 4.29699 85.1513 4.61053C85.388 4.92408 86.1456 6.0157 86.4296 6.57311C86.8557 7.40924 89.7793 11.9267 89.7793 11.9267C89.2822 12.4957 86.1811 15.9447 84.8199 17.3963C83.4587 18.848 82.5947 19.9976 82.2396 20.8105C81.8371 21.786 82.1094 22.4596 83.0208 22.8312C83.944 23.2028 85.0329 23.017 86.11 22.4828C86.11 22.4828 86.1101 22.7615 86.2758 22.7847C86.5835 22.8312 87.3529 22.3202 87.8026 22.0647C87.4475 22.2738 86.9859 22.6105 86.477 23.017C86.1574 23.2725 86.0035 23.5047 85.9443 23.6673C85.6129 24.5383 86.69 24.7125 87.2582 24.9099C87.5067 25.0028 88.0867 25.1189 88.0985 25.7228C88.6193 25.8273 90.5131 23.5976 91.1878 22.6338C92.3951 20.9034 93.9338 19.0105 94.2771 18.6157C94.3244 18.6854 97.3072 22.5641 98.8932 24.4105C99.4614 25.0957 99.9585 25.595 100.396 25.9202C101.26 26.5473 102.042 26.5357 102.716 25.8505C103.367 25.2118 103.663 24.1434 103.486 23.6092C103.308 23.0634 103.391 22.8892 103.391 22.8892C103.391 22.8892 101.225 20.1486 100.55 19.2892C100.55 19.2892 100.55 19.2776 100.562 19.2776C100.976 19.5447 102.906 21.8905 103.924 22.9705C104.409 23.4931 106.184 23.435 106.042 23.1912C106.042 23.1912 105.131 21.728 105.107 21.368C105.084 21.0776 104.882 20.7989 105.119 21.1938C105.214 21.3447 105.32 21.5305 105.522 21.7628C105.735 22.0183 106.066 22.4944 106.149 22.506C106.267 22.506 106.693 22.6221 106.954 22.7731C107.001 22.8544 107.013 22.7499 106.989 22.6454Z" fill="black" fill-opacity="0.75"/>
<path d="M80.0489 25.3392C80.3093 25.3392 80.0725 24.8515 79.9778 24.6889C79.966 24.6657 79.9897 24.6308 80.0134 24.6424C80.3921 24.6541 80.6407 24.5844 80.7827 24.5147C80.7827 24.5147 82.4871 23.4695 80.8774 21.867C80.8774 21.867 81.2798 20.845 80.6052 20.6128C80.2501 20.4154 78.084 20.3341 76.6992 20.1018C76.1192 19.9973 74.0952 19.5444 72.4736 19.6257L72.7222 17.4192C75.1368 17.2683 79.457 17.5934 80.108 17.547C82.6647 17.3728 81.4574 14.7366 80.9958 14.2257C80.9958 14.2257 80.5815 13.8076 80.617 13.4592C80.3566 13.4012 76.9714 12.9947 78.2142 13.1457C78.5338 13.1689 78.9599 13.1921 79.5162 13.2037C80.0725 13.2154 80.4513 13.2154 80.6643 13.2154C80.6999 12.867 80.6288 12.6347 80.475 12.4954C80.3921 12.3792 77.6224 12.1005 76.6518 12.0192C75.6813 11.9379 72.8879 11.5083 72.6985 12.2979C72.6985 12.2979 73.1128 8.43084 73.1601 8.00116C75.2197 7.88503 78.2497 8.1289 79.6819 8.1289C79.8832 8.11729 80.8064 8.036 81.3272 6.956C81.5876 6.41019 81.5166 5.06309 81.4337 4.70309C81.2798 4.05277 80.6407 3.23987 80.4986 3.11213C80.4158 3.00761 79.4215 2.93793 78.8416 2.89148C78.3089 2.85664 75.2433 2.50825 74.8172 2.42696C74.1662 2.29922 72.663 2.29922 71.3492 2.48503C70.8047 2.55471 68.0469 2.60116 67.6326 2.81019C67.1355 3.06567 66.9579 3.51858 67.0881 4.19213C67.2183 4.85406 67.3959 5.29535 67.3959 5.29535C67.4314 5.45793 67.8693 5.67858 67.6563 6.596C67.4906 7.29277 67.2538 7.96632 67.2183 8.68632C67.1828 9.39471 66.3898 16.0721 66.5555 17.907C66.6147 18.3947 66.449 21.8321 66.52 22.8076C66.6147 23.516 67.2065 24.0734 67.6681 24.1431C66.8396 24.6889 67.1118 24.9676 67.0881 25.0837C67.6444 25.0837 68.5795 25.2115 69.0411 25.5366C70.3313 26.1986 80.0489 25.3392 80.0489 25.3392Z" fill="black" fill-opacity="0.75"/>
<path d="M66.2949 4.81948C66.2949 4.81948 64.6496 4.62206 64.1998 4.47109C64.0105 4.41303 66.792 4.70335 66.5908 4.04142C66.5908 4.04142 66.4014 3.91368 66.3067 3.87884C65.7504 3.65819 63.1819 3.56529 63.0162 3.55368C59.2168 2.68271 49.0139 3.44916 48.138 3.34464C47.8184 3.34464 47.4988 3.51884 47.2029 3.844C47.1793 3.86722 47.1911 3.91368 47.2266 3.91368C47.8539 4.08787 48.718 4.16916 49.1441 4.22722C49.9371 4.33174 51.0261 4.55238 50.8603 4.59884C50.4461 4.72658 47.4633 4.33174 47.0964 4.25045C46.5401 4.12271 46.5874 4.84271 46.5874 4.84271C46.4454 5.09819 45.3683 6.22464 47.2148 7.10722C47.2739 7.14206 47.2858 7.22335 47.2384 7.2698C46.978 7.50206 46.8123 8.23368 47.7119 8.57045C48.1498 8.76787 48.9429 8.80271 50.2685 8.96529C51.2628 9.08142 51.5113 9.00013 52.8725 9.0698C52.7186 9.65045 52.1978 14.4234 52.1387 20.5782C52.1268 21.6698 52.186 22.4595 52.3991 22.9704C52.7068 23.5975 53.2158 23.8414 53.9733 23.6904C54.7426 23.5511 55.2753 23.0517 55.6304 22.4014C55.6304 22.4014 55.9618 22.6104 56.0446 22.1924L56.4589 20.5085L56.2814 22.204C56.1867 22.5988 56.2814 23.1911 56.5062 23.4001C56.6483 23.5279 56.8613 23.7834 57.5478 23.7021C58.0331 23.644 58.2817 23.5046 58.767 23.7834C58.8262 23.1214 58.767 22.5756 58.696 21.2866C58.696 21.2866 58.6604 9.45303 58.6841 9.0698C59.0274 9.0698 60.5306 9.09303 61.7024 9.11626C62.886 9.12787 64.8863 9.11626 65.4308 8.884C66.2475 8.53561 66.1291 7.94335 65.9516 7.24658C65.8687 6.92142 65.7977 6.59626 65.5137 6.34077C66.5079 6.22464 66.5316 4.85432 66.2949 4.81948Z" fill="black" fill-opacity="0.75"/>
</g>
<defs>
<clipPath id="clip0_1642_7255">
<rect width="107" height="27" fill="white"/>
</clipPath>
</defs>
</svg>
