<svg width="96" height="24" viewBox="0 0 96 24" fill="none" xmlns="http://www.w3.org/2000/svg">
<path d="M7.64127 14.03L7.58475 14.5536H21.9127L21.0336 22.6997H15.2736L15.3175 22.2924H6.74952L6.70556 22.6997H0.897555L2.43614 8.44409H0.852143L1.64656 1.08353H9.90256L9.9999 0.181641H15.9759L15.8786 1.08353H24.1346L23.3401 8.44409H21.4201L20.8173 14.03H7.64127ZM17.8939 6.20392L17.963 5.56387H6.875L6.80592 6.20392H17.8939ZM8.11226 9.666L8.03691 10.3642H15.4529L15.5283 9.666H8.11226ZM15.7289 18.4812L15.7979 17.8412H7.22993L7.16085 18.4812H15.7289Z" fill="black" fill-opacity="0.7"/>
<path d="M47.4126 7.1058H35.5326L35.4332 7.80404H45.8972L45.04 15.7465C44.793 18.0351 44.4154 19.6062 43.9073 20.4596C43.3992 21.313 42.4516 21.8657 41.0644 22.1179C39.6952 22.3506 37.1867 22.467 33.5387 22.467C33.2886 21.2257 33.0803 20.2656 32.9135 19.5868C32.7489 18.8885 32.5084 18.1515 32.1922 17.3757C31.2456 18.7334 30.12 19.8971 28.8154 20.8669C27.5288 21.8172 26.1526 22.4864 24.6867 22.8743C24.5571 21.5554 24.3637 20.382 24.1067 19.354C23.8517 18.3067 23.4451 17.1817 22.8869 15.9792C24.0514 15.8628 25.0317 15.601 25.8277 15.1937C26.6257 14.767 27.3306 14.1657 27.9423 13.3899C28.3488 12.8856 28.6579 12.2456 28.8696 11.4698C29.0973 10.694 29.2761 9.70479 29.4059 8.50228L29.5326 7.1058H25.3326L25.9166 1.69448H33.8846L34.0416 0.239826H39.9456L39.7886 1.69448H47.9966L47.4126 7.1058ZM39.3529 13.0699H34.2409C33.9059 14.0979 33.4952 15.087 33.0086 16.0374C35.1901 16.1344 36.5769 16.1829 37.1689 16.1829C37.7449 16.1829 38.1641 16.1538 38.4263 16.0956C38.6886 16.0374 38.8591 15.9404 38.9377 15.8047C39.0324 15.6689 39.0965 15.4458 39.1299 15.1355L39.3529 13.0699Z" fill="black" fill-opacity="0.7"/>
<path d="M68.2377 18.5103C69.3721 19.2667 70.2415 19.8098 70.8459 20.1395C70.1974 20.6632 69.6591 21.1287 69.2312 21.536C68.8213 21.9239 68.3509 22.4282 67.8199 23.0488C67.0076 22.273 66.0656 21.439 64.9939 20.5468C63.715 21.5748 62.377 22.4088 60.9799 23.0488C60.5042 22.564 59.9294 22.1082 59.2555 21.6815L59.177 22.4088H51.545L51.9594 18.5685C51.9617 18.103 51.9229 17.6472 51.843 17.2011C51.6416 18.3261 51.434 19.2861 51.2202 20.0813C51.0063 20.8766 50.7511 21.759 50.4544 22.7288C49.8925 22.3021 49.3281 21.9724 48.7612 21.7396C48.1964 21.4875 47.5207 21.2257 46.734 20.9541C47.5703 18.3939 48.1538 15.5816 48.4845 12.5171L49.3418 4.5747L61.0955 4.63289L60.4863 10.277H59.1903L58.9793 11.1207H60.3953L60.1535 13.3608H59.0495L58.9835 13.9718H60.0875L59.8678 16.0083H58.7638L58.6978 16.6193H59.8018L59.582 18.6558H58.478L58.4121 19.2667H59.5161L59.469 19.7031C60.4367 19.3346 61.2477 18.937 61.9017 18.5103H60.1257L61.5827 5.0111H64.5107L64.7623 4.45833H61.5223L61.9494 0.501664H72.2934L71.8663 4.45833H68.5783L68.3267 5.0111H71.6627L70.2057 18.5103H68.2377ZM49.486 0.792595H61.51L61.152 4.10921H49.128L49.486 0.792595ZM56.9884 7.77495L57.0449 7.25127H53.1569L53.1004 7.77495H56.9884ZM67.4544 7.9786H65.1264L65.0573 8.61865H67.3853L67.4544 7.9786ZM52.4558 13.3026C52.9263 12.3523 53.2992 11.3437 53.5743 10.277H52.8303L52.4558 13.3026ZM56.0273 11.1207H56.7713L56.9583 10.277H56.2623L56.0273 11.1207ZM67.1058 11.2079H64.7778L64.7088 11.848H67.0368L67.1058 11.2079ZM55.5035 13.9718H56.5595L56.6255 13.3608H55.5695L55.5035 13.9718ZM66.6914 15.0482L66.7636 14.3791H64.4356L64.3634 15.0482H66.6914ZM55.2178 16.6193H56.2738L56.3398 16.0083H55.2838L55.2178 16.6193ZM65.6172 19.4413L66.7737 18.5103H64.0377L65.6172 19.4413ZM56.054 18.6558H54.998L54.9321 19.2667H55.9881L56.054 18.6558Z" fill="black" fill-opacity="0.7"/>
<path d="M83.575 11.3825H77.719L76.5195 22.4961H71.5755L73.9211 0.763503H84.7211L83.575 11.3825ZM93.9435 19.3831C93.8367 20.3723 93.6254 21.0705 93.3094 21.4778C92.9935 21.8851 92.3402 22.1567 91.3495 22.2924C90.3749 22.4282 88.7035 22.4961 86.3355 22.4961C86.3983 21.9142 86.4403 21.3033 86.4614 20.6632H81.5654L81.4963 21.3033H77.1283L78.1268 12.0516H89.3108L88.8304 16.5029C89.0704 16.5029 89.2335 16.4738 89.3198 16.4156C89.4221 16.3574 89.4885 16.2604 89.5192 16.1247C89.5498 15.9889 89.5882 15.7077 89.6342 15.281L90.055 11.3825H84.031L85.1771 0.763503H95.9531L94.0911 18.0157L93.9435 19.3831ZM80.4043 3.84737H78.5323L78.4538 4.5747H80.3258L80.4043 3.84737ZM90.7898 4.5747L90.8683 3.84737H88.8043L88.7258 4.5747H90.7898ZM79.9521 8.03679L80.0337 7.28037H78.1617L78.0801 8.03679H79.9521ZM88.4337 7.28037L88.3521 8.03679H90.4161L90.4977 7.28037H88.4337ZM84.5723 15.4846H82.1243L82.0112 16.532H84.4592L84.5723 15.4846Z" fill="black" fill-opacity="0.7"/>
</svg>
