<svg width="98" height="24" viewBox="0 0 98 24" fill="none" xmlns="http://www.w3.org/2000/svg">
<path d="M24.4644 7.614H18.8964L18.7451 8.91537H23.8331L23.2314 14.0919H18.1434L17.9922 15.3933H23.5602L22.9148 20.9458H17.3468L17.1249 22.8544H11.7489L12.8717 13.1954C11.9388 14.063 10.854 14.9306 9.61712 15.7981C9.56411 13.6388 9.33413 11.5567 8.92719 9.55159L7.38094 22.8544H2.02894L2.81887 16.0584C2.00157 16.4826 1.39196 16.7718 0.990028 16.926C1.00285 16.5404 1.02046 16.2512 1.04287 16.0584C1.12391 14.5353 1.17469 13.2725 1.19522 12.27C1.21575 11.2675 1.18027 10.2649 1.0888 9.2624C1.79697 9.08888 2.33362 8.87681 2.69875 8.62618C3.07989 8.37554 3.40822 8.02851 3.68377 7.58508C3.94107 7.16093 4.26815 6.27408 4.66502 4.92452C5.08012 3.55567 5.38292 2.05187 5.5734 0.413115L11.45 0.442036C11.2042 1.86872 10.8864 3.2954 10.4965 4.72208C10.125 6.12948 9.70281 7.42121 9.23012 8.59726C10.1981 8.11527 10.966 7.5658 11.5337 6.94886C12.1037 6.31264 12.5578 5.5029 12.8961 4.51965C13.2526 3.51711 13.549 2.20611 13.7852 0.586632H19.4252C19.3462 0.9915 19.2217 1.51205 19.0517 2.14827H25.0997L24.4644 7.614Z" fill="black" fill-opacity="0.7"/>
<path d="M28.0628 1.02042H47.7428L46.6235 10.6505H26.9435L28.0628 1.02042ZM34.1749 6.45723H40.3669L40.4744 5.53182H34.2824L34.1749 6.45723ZM25.6935 11.2867H36.4455L35.111 22.7677H30.455L30.4886 22.4785H29.0486L29.015 22.7677H24.359L25.6935 11.2867ZM37.0455 11.2867H47.7975L46.463 22.7677H41.807L41.8406 22.4785H40.4006L40.367 22.7677H35.711L37.0455 11.2867ZM31.0937 17.273L31.2315 16.0873H29.7915L29.6537 17.273H31.0937ZM41.1435 16.0873L41.0057 17.273H42.4457L42.5835 16.0873H41.1435Z" fill="black" fill-opacity="0.7"/>
<path d="M48.1527 12.1543C49.6567 12.1543 50.9811 12.1158 52.1261 12.0386C53.2893 11.9422 54.3164 11.7784 55.2073 11.547C56.0639 11.3349 56.6839 11.0939 57.0673 10.824L49.249 11.8073L49.5238 7.58508L51.0012 7.46941L51.3622 6.42832L50.7829 6.45723C50.8059 5.57038 50.8009 4.85704 50.7676 4.31721C50.7344 3.77739 50.6142 3.22792 50.4072 2.66881L54.6893 2.58206L55.7569 0.210682L60.9318 0.702309L59.8594 2.4953L62.5781 2.43746C62.1973 1.85908 61.9446 1.28069 61.8198 0.702309L66.6083 0.181763C66.9007 1.10718 67.5354 1.77232 68.5124 2.17719C69.5053 2.58206 70.9298 2.78449 72.7858 2.78449C72.2456 3.43999 71.7511 4.11478 71.3025 4.80884C71.4349 5.73425 71.623 6.52471 71.8668 7.18021C72.1106 7.83572 72.4796 8.72257 72.9736 9.84078L69.1786 11.5181L68.9747 10.7951L64.8341 11.3157C67.1052 11.8748 69.8007 12.1543 72.9207 12.1543C72.4224 13.1376 72.0436 13.9184 71.7844 14.4968C71.5412 15.0752 71.2685 15.7692 70.9664 16.579C68.7805 16.2512 66.8846 15.8367 65.2789 15.3354C63.348 15.5668 61.2765 15.7692 59.0643 15.9427C56.8704 16.097 54.9745 16.1645 53.3768 16.1452L53.2247 15.5957C51.9843 15.9427 50.5542 16.2705 48.9344 16.579C48.9005 15.7692 48.828 15.0848 48.717 14.5257C48.6243 13.9473 48.4361 13.1569 48.1527 12.1543ZM65.8361 7.23805L67.9409 7.09346L67.7989 6.45723C67.188 6.2066 66.688 5.96561 66.2989 5.73425H66.2509L65.8361 7.23805ZM61.9145 7.52725L62.3907 5.90777L60.5326 5.99453C60.6846 6.47651 60.887 7.0067 61.1398 7.58508L61.9145 7.52725ZM55.4418 6.22588L55.0908 7.18021L56.7843 7.06454C56.7267 6.87174 56.6563 6.58255 56.5731 6.19696L55.4418 6.22588ZM60.9679 8.85753L59.5773 9.46483L59.5672 9.55159H60.9112L60.9679 8.85753ZM61.3425 13.687C60.8024 13.3786 60.4064 13.1376 60.1545 12.9641C59.7209 13.2533 59.1331 13.5617 58.391 13.8895L61.3425 13.687ZM52.2977 16.55C56.7457 16.55 61.1017 16.309 65.3658 15.8271L65.8433 17.7068C64.0701 17.9574 61.9232 18.1888 59.4026 18.4009C56.8842 18.5937 54.7061 18.6804 52.8683 18.6611L52.2977 16.55ZM48.1576 18.719C50.2632 18.9118 52.404 19.0082 54.58 19.0082C57.14 19.0082 59.6986 18.8829 62.2557 18.6322C64.8151 18.3623 67.5479 17.9767 70.4542 17.4755L70.8989 21.4952C64.2311 22.2857 56.9486 22.7195 49.0517 22.7966C48.9726 22.2375 48.8696 21.6784 48.7426 21.1193C48.6316 20.5602 48.4366 19.7601 48.1576 18.719Z" fill="black" fill-opacity="0.7"/>
<path d="M94.2781 15.48C94.8048 15.9042 95.3966 16.3187 96.0536 16.7236C95.4365 17.7646 94.9474 18.7383 94.5861 19.6444C94.243 20.5313 93.8479 21.6591 93.4008 23.0279C92.4571 22.1989 91.6389 21.2542 90.9462 20.1939C89.6709 21.2542 87.9851 22.1989 85.8888 23.0279C85.9583 21.4663 85.9174 20.0975 85.7661 18.9214C85.3862 19.7119 84.9785 20.8108 84.5429 22.2182L84.3489 22.8544C83.4334 22.3339 82.2996 21.7651 80.9473 21.1482C79.952 21.7266 78.7736 22.1604 77.412 22.4496C76.0686 22.7195 74.4049 22.8544 72.4209 22.8544C72.4114 21.6977 72.2668 20.4638 71.9872 19.1528C72.9478 19.4227 73.8841 19.5576 74.7961 19.5576C75.1961 19.5576 75.5915 19.5287 75.9822 19.4709C74.9096 19.201 73.7594 18.9793 72.5315 18.8057C73.097 18.2081 73.5711 17.6393 73.9539 17.0995H72.4659L72.7986 14.2365H75.7266L76.0406 13.6003H73.4006L73.9384 8.97321H78.5224L78.5796 8.48158H74.1876L74.3456 7.12238H73.6975L74.1883 2.90017H74.8363L75.0346 1.19393H79.4266L79.5073 0.499873H83.0593L82.9786 1.19393H87.3706L87.1723 2.90017H87.6283L87.1376 7.12238H86.6815L86.537 8.3659C87.0039 7.65256 87.3676 6.79462 87.6282 5.79209C87.9069 4.77028 88.1315 3.52675 88.3018 2.06151L88.4425 0.644469H92.3065L92.2297 1.51205H97.2217L96.5292 7.46941H96.0972C95.8658 9.18528 95.6121 10.6794 95.3362 11.9519C95.0603 13.2243 94.7076 14.4004 94.2781 15.48ZM79.1208 3.82558L79.1813 3.30504H78.2213L78.1608 3.82558H79.1208ZM83.6328 3.82558L83.6933 3.30504H82.7333L82.6728 3.82558H83.6328ZM77.8851 6.19696L77.828 6.68859H78.788L78.8451 6.19696H77.8851ZM83.3 6.68859L83.3571 6.19696H82.3971L82.34 6.68859H83.3ZM91.5701 11.3157C91.7513 10.583 91.8968 9.74439 92.0066 8.79969C92.0738 8.22131 92.1174 7.77788 92.1372 7.46941H91.0332L90.8052 8.19239C91.0368 9.50339 91.2918 10.5445 91.5701 11.3157ZM82.1316 8.48158L82.0744 8.97321H86.0824C86.1736 8.87681 86.2967 8.71293 86.4516 8.48158H82.1316ZM86.0518 16.4633C87.0665 16.4054 87.9859 16.1355 88.8099 15.6535C88.6557 15.1908 88.4977 14.5546 88.3358 13.7449C87.9396 14.4004 87.5101 14.998 87.0474 15.5379C86.9134 13.9377 86.7018 12.3857 86.4126 10.8819L86.0966 13.6003H81.5366L81.5131 13.8027H80.1691L79.9266 14.2365H86.3106L86.0518 16.4633ZM78.2804 11.0554H77.3204L77.2599 11.5759H78.2199L78.2804 11.0554ZM82.7319 11.5759L82.7924 11.0554H81.8324L81.7719 11.5759H82.7319ZM77.7708 17.5044C78.3103 17.5429 78.9574 17.6201 79.7119 17.7357C79.9673 17.4658 80.1519 17.2537 80.2659 17.0995H78.0819L77.7708 17.5044ZM83.9892 18.5166C84.458 18.6129 85.0467 18.7093 85.7555 18.8057C85.6212 18.0346 85.5033 17.4658 85.4019 17.0995H83.0019L84.6046 17.7646L83.9892 18.5166Z" fill="black" fill-opacity="0.7"/>
</svg>
