<svg width="50" height="23" viewBox="0 0 50 23" fill="none" xmlns="http://www.w3.org/2000/svg">
<path d="M23.9433 17.5358L23.3769 22.4085H13.4169L13.383 22.7003H8.487L9.9962 9.71619C9.50663 9.38551 9.10403 9.13264 8.78838 8.95757C9.03464 8.49073 9.21134 8.1406 9.31847 7.90717H8.62247L8.40541 9.77455L9.54359 9.68702C9.37819 10.8347 9.16209 12.5562 8.8953 14.8515L7.79834 14.9974L7.48633 17.6817C7.30093 19.2768 7.06005 20.3855 6.7637 21.008C6.46735 21.6304 5.997 22.0292 5.35265 22.2043C4.71056 22.3599 3.529 22.4766 1.80795 22.5544L1.30056 22.5836C1.36074 21.3776 1.37205 20.3855 1.33449 19.6075C1.31519 18.8099 1.18041 17.9735 0.930156 17.0982C1.50616 17.0982 1.90955 17.069 2.14033 17.0106C2.38937 16.9328 2.54581 16.8258 2.60964 16.6897C2.67346 16.5535 2.72573 16.3104 2.76642 15.9602L2.8139 15.5517L1.48034 15.6685C1.57478 14.443 1.63635 13.4315 1.66505 12.634C1.71201 11.817 1.72584 11.0097 1.70654 10.2122L3.44472 10.1247L3.70247 7.90717H2.38247L2.98276 2.74271H4.30276L4.58086 0.350134H9.50086L9.22276 2.74271H10.3028L9.83474 6.76924C10.7394 4.62954 11.3766 2.38285 11.7462 0.0291791L16.8756 0.291779C16.6779 1.16711 16.5199 1.8382 16.4016 2.30504H17.6016C17.8954 1.42971 18.1127 0.661363 18.2536 0L23.2049 0.350134L22.6176 2.30504H25.6176L25.0784 6.94431H22.1984L22.0899 7.878H24.7539L24.3028 11.7586H21.6388L21.5303 12.6923H24.1943L23.7432 16.573H21.0792L20.9673 17.5358H23.9433ZM15.1059 7.878H17.4819L17.5904 6.94431H15.2144L15.1059 7.878ZM14.5463 12.6923H16.9223L17.0308 11.7586H14.6548L14.5463 12.6923ZM16.4712 16.573H14.0952L13.9833 17.5358H16.3593L16.4712 16.573Z" fill="black" fill-opacity="0.7"/>
<path d="M48.3414 15.1433H34.9494L34.8881 15.4642H47.8481L47.3156 20.0451C47.2387 20.7065 47.0782 21.1928 46.834 21.504C46.5899 21.8152 46.0656 22.0584 45.2613 22.2335C44.4752 22.3891 43.2079 22.4863 41.4593 22.5252C41.4566 22.1362 41.4172 21.718 41.3412 21.2706L39.3432 21.9417C39.1218 20.405 38.8961 19.1114 38.6662 18.061L39.9411 17.6234H38.3811C38.6708 18.985 38.8862 20.298 39.0273 21.5624L36.4947 22.4961C36.4457 21.6791 36.3344 20.4342 36.1608 18.7613C36.1447 18.6251 36.1274 18.4987 36.1089 18.382C36.1065 18.2653 36.1018 18.168 36.0948 18.0902L37.6611 17.6234H33.1491L34.1508 18.0902L35.7583 17.6817C35.9013 18.6543 36.0355 19.977 36.1611 21.6499L33.4981 22.4669C33.4992 21.4943 33.4841 20.4536 33.453 19.3449C32.5156 20.9399 31.708 22.107 31.03 22.8462C30.5972 22.1654 29.985 21.5818 29.1935 21.0955C28.977 21.5818 28.6806 22.1362 28.3042 22.7587L26.2632 21.9417C25.3941 21.5721 24.5594 21.2511 23.7591 20.9788C24.3979 20.0257 24.8881 19.1114 25.2299 18.2361C25.5739 17.3413 25.8502 16.2715 26.059 15.0265C26.2859 13.7622 26.5464 11.8656 26.8403 9.33688L27.2371 5.92308H35.6131L35.664 5.48542H31.392L31.453 4.96022H27.013L27.4844 0.904511H31.9244L32.0058 0.204245H37.1178L37.0364 0.904511H40.0364L40.1178 0.204245H45.2298L45.1484 0.904511H49.6364L49.165 4.96022H44.677L44.616 5.48542H40.464L40.4097 5.95226H48.9777L48.6012 9.191H42.0012L41.9436 9.68702H48.6396L48.2394 13.13H35.4474L35.3451 13.5968H48.5211L48.3414 15.1433ZM39.5073 5.45624L39.565 4.96022H36.565L36.5073 5.45624H39.5073ZM33.3612 9.191H31.5132L31.4556 9.68702H33.3036L33.3612 9.191ZM36.7116 9.68702H38.5596L38.6172 9.191H36.7692L36.7116 9.68702ZM33.0831 11.5836L33.134 11.1459H31.286L31.2351 11.5836H33.0831ZM38.39 11.1459H36.542L36.4911 11.5836H38.3391L38.39 11.1459ZM43.4511 11.5836L43.502 11.1459H41.774L41.7231 11.5836H43.4511ZM29.607 20.0159C30.422 19.199 31.0415 18.4112 31.4657 17.6525H30.5057L31.5834 13.13H31.0314C30.6147 16.1645 30.1399 18.4598 29.607 20.0159ZM41.4174 19.1698C41.9156 19.1503 42.2401 19.1114 42.3909 19.0531C42.5577 18.9947 42.657 18.8975 42.6888 18.7613C42.7389 18.6057 42.799 18.2264 42.8691 17.6234H40.9731C41.1543 18.1291 41.3024 18.6446 41.4174 19.1698Z" fill="black" fill-opacity="0.7"/>
</svg>
