<svg width="96" height="24" viewBox="0 0 96 24" fill="none" xmlns="http://www.w3.org/2000/svg">
<path d="M23.5419 7.46288H17.9739L17.8319 8.77877H22.9199L22.355 14.0131H17.267L17.125 15.329H22.693L22.087 20.9434H16.519L16.3107 22.8734H10.9347L11.9888 13.1066C11.0621 13.9838 9.98347 14.8611 8.75279 15.7384C8.68444 13.555 8.43967 11.4495 8.01849 9.4221L6.56671 22.8734H1.21471L1.95638 16.0015C1.14209 16.4304 0.534533 16.7228 0.133701 16.8788C0.143782 16.4889 0.159342 16.1965 0.180382 16.0015C0.2506 14.4615 0.292414 13.1846 0.305823 12.1708C0.319233 11.1571 0.276642 10.1434 0.178051 9.12968C0.884987 8.95423 1.42013 8.73978 1.78348 8.48635C2.16284 8.23292 2.48871 7.88202 2.7611 7.43364C3.01539 7.00476 3.33618 6.10801 3.72346 4.74338C4.12884 3.35927 4.42096 1.83868 4.5998 0.181641L10.4766 0.210884C10.2409 1.65349 9.93325 3.09609 9.55355 4.53869C9.19196 5.9618 8.77899 7.26794 8.31464 8.45711C9.27924 7.96975 10.0432 7.41415 10.6065 6.79032C11.172 6.147 11.6203 5.32822 11.9516 4.334C12.3011 3.32028 12.5881 1.99464 12.8129 0.357094H18.4529C18.3767 0.76648 18.2559 1.29283 18.0904 1.93616H24.1384L23.5419 7.46288Z" fill="black" fill-opacity="0.7"/>
<path d="M27.0935 0.795722H46.7735L45.7226 10.5333H26.0426L27.0935 0.795722ZM33.2442 6.29321H39.4362L39.5372 5.35747H33.3452L33.2442 6.29321ZM24.7971 11.1766H35.5491L34.2962 22.7857H29.6402L29.6717 22.4932H28.2317L28.2002 22.7857H23.5442L24.7971 11.1766ZM36.1491 11.1766H46.9011L45.6482 22.7857H40.9922L41.0237 22.4932H39.5837L39.5522 22.7857H34.8962L36.1491 11.1766ZM30.2398 17.2297L30.3692 16.0308H28.9292L28.7998 17.2297H30.2398ZM40.2812 16.0308L40.1518 17.2297H41.5918L41.7212 16.0308H40.2812Z" fill="black" fill-opacity="0.7"/>
<path d="M71.1958 16.6741C70.4902 17.7268 69.9471 18.682 69.5665 19.5398C69.1859 20.3976 68.7237 21.5673 68.1798 23.0488C66.9903 22.2106 65.9573 21.2553 65.0811 20.1831C63.5392 21.2748 61.4601 22.2301 58.8438 23.0488C58.8643 21.8207 58.8297 20.807 58.74 20.0077L58.6643 20.7095H54.0323L54.0796 20.2709H52.2556L52.0505 22.1716H47.4425L48.8059 9.53906H51.8539L52.0716 7.52137H48.6396L49.2172 2.17009H52.6492L52.8543 0.269367H58.0383L57.8332 2.17009H60.7612L60.2625 6.79032C60.8494 5.50368 61.2607 3.76865 61.4963 1.58526L61.5986 0.415577H66.1346L66.0639 1.29284H72.2559L71.6057 7.31668H71.0777C70.8467 9.01271 70.5716 10.5235 70.2525 11.8492C69.9356 13.1553 69.5192 14.3445 69.0035 15.4167C69.4776 15.7676 70.2084 16.1867 71.1958 16.6741ZM65.6117 11.2643C65.9047 10.3286 66.1267 9.01271 66.2777 7.31668H64.7897L64.5763 7.96C64.8715 9.22715 65.2167 10.3286 65.6117 11.2643ZM57.2556 7.52137L57.0379 9.53906H58.9339L58.7601 8.92498C59.1702 8.53509 59.5407 8.06722 59.8716 7.52137H57.2556ZM59.1377 16.3232C60.3377 16.3232 61.4109 16.0893 62.3574 15.6214C62.0715 14.8611 61.8571 14.1788 61.7143 13.5745C61.2108 14.2373 60.6614 14.8806 60.066 15.5044C59.9397 14.4517 59.7754 13.3795 59.5732 12.2878L59.1377 16.3232ZM52.9562 13.7791L52.8142 15.095H54.6382L54.7802 13.7791H52.9562Z" fill="black" fill-opacity="0.7"/>
<path d="M95.2183 12.4633L94.7954 16.3817H94.0994L93.809 19.0719H88.145L88.2113 18.4579H86.1233L85.8866 20.651C85.8129 21.3333 85.5854 21.8109 85.2039 22.0839C84.8385 22.3568 84.0345 22.542 82.792 22.6395C81.5654 22.7369 79.4242 22.7857 76.3682 22.7857C76.0754 21.0506 75.7316 19.7153 75.3366 18.7795L78.3031 18.8672L79.4519 18.8965C79.8199 18.8965 80.054 18.877 80.1542 18.838C80.2726 18.7795 80.3401 18.6723 80.357 18.5163L80.3633 18.4579H71.6993L71.9612 16.0308H80.6252L80.6789 15.5337H71.7989L72.0387 13.3113H80.9187L80.9724 12.8142H72.5724L72.7838 10.855H81.1838L81.2407 10.3286H73.5367L74.1111 5.00656H81.8151L81.8719 4.48021H73.4719L73.8537 0.941932H82.2537L82.3263 0.269367H88.0863L88.0137 0.941932H95.9817L95.5999 4.48021H87.6319L87.5751 5.00656H94.8471L94.2727 10.3286H87.0007L86.9438 10.855H94.6958L94.5223 12.4633H95.2183ZM82.0331 7.43364H79.2971L79.234 8.01848H81.97L82.0331 7.43364ZM86.77 8.01848H89.074L89.1371 7.43364H86.8331L86.77 8.01848ZM88.8204 12.8142H86.7324L86.6787 13.3113H88.7667L88.8204 12.8142ZM86.4389 15.5337L86.3852 16.0308H88.4732L88.5269 15.5337H86.4389Z" fill="black" fill-opacity="0.7"/>
</svg>
