<svg width="36" height="33" viewBox="0 0 36 33" fill="none" xmlns="http://www.w3.org/2000/svg">
<g clip-path="url(#clip0_12_687)">
<path d="M33.4583 1L20.3242 10.7183L22.7666 4.99099L33.4583 1Z" fill="#E17726" stroke="#E17726" stroke-width="0.25" stroke-linecap="round" stroke-linejoin="round"/>
<path d="M3.16309 1L16.1802 10.809L13.8548 4.99098L3.16309 1Z" fill="#E27625" stroke="#E27625" stroke-width="0.25" stroke-linecap="round" stroke-linejoin="round"/>
<path d="M28.7291 23.5334L25.2344 28.872L32.7173 30.9323L34.8609 23.65L28.7291 23.5334Z" fill="#E27625" stroke="#E27625" stroke-width="0.25" stroke-linecap="round" stroke-linejoin="round"/>
<path d="M1.77246 23.65L3.90301 30.9323L11.373 28.872L7.89129 23.5334L1.77246 23.65Z" fill="#E27625" stroke="#E27625" stroke-width="0.25" stroke-linecap="round" stroke-linejoin="round"/>
<path d="M10.9702 14.5149L8.8916 17.6507L16.2966 17.9876L16.0497 10.0186L10.9702 14.5149Z" fill="#E27625" stroke="#E27625" stroke-width="0.25" stroke-linecap="round" stroke-linejoin="round"/>
<path d="M25.6505 14.515L20.493 9.92798L20.3242 17.9877L27.7291 17.6508L25.6505 14.515Z" fill="#E27625" stroke="#E27625" stroke-width="0.25" stroke-linecap="round" stroke-linejoin="round"/>
<path d="M11.373 28.872L15.8549 26.7081L11.9966 23.7019L11.373 28.872Z" fill="#E27625" stroke="#E27625" stroke-width="0.25" stroke-linecap="round" stroke-linejoin="round"/>
<path d="M20.7656 26.7081L25.2345 28.872L24.624 23.7019L20.7656 26.7081Z" fill="#E27625" stroke="#E27625" stroke-width="0.25" stroke-linecap="round" stroke-linejoin="round"/>
<path d="M25.2346 28.8722L20.7656 26.7083L21.1294 29.6108L21.0904 30.8418L25.2346 28.8722Z" fill="#D5BFB2" stroke="#D5BFB2" stroke-width="0.25" stroke-linecap="round" stroke-linejoin="round"/>
<path d="M11.373 28.8722L15.5302 30.8418L15.5042 29.6108L15.855 26.7083L11.373 28.8722Z" fill="#D5BFB2" stroke="#D5BFB2" stroke-width="0.25" stroke-linecap="round" stroke-linejoin="round"/>
<path d="M15.6081 21.7842L11.8926 20.6958L14.5169 19.4907L15.6081 21.7842Z" fill="#233447" stroke="#233447" stroke-width="0.25" stroke-linecap="round" stroke-linejoin="round"/>
<path d="M21.0127 21.7842L22.104 19.4907L24.7412 20.6958L21.0127 21.7842Z" fill="#233447" stroke="#233447" stroke-width="0.25" stroke-linecap="round" stroke-linejoin="round"/>
<path d="M11.3733 28.872L12.0228 23.5334L7.8916 23.6501L11.3733 28.872Z" fill="#CC6228" stroke="#CC6228" stroke-width="0.25" stroke-linecap="round" stroke-linejoin="round"/>
<path d="M24.5986 23.5334L25.2352 28.872L28.7298 23.6501L24.5986 23.5334Z" fill="#CC6228" stroke="#CC6228" stroke-width="0.25" stroke-linecap="round" stroke-linejoin="round"/>
<path d="M27.7292 17.6506L20.3242 17.9875L21.0127 21.7841L22.104 19.4906L24.7412 20.6957L27.7292 17.6506Z" fill="#CC6228" stroke="#CC6228" stroke-width="0.25" stroke-linecap="round" stroke-linejoin="round"/>
<path d="M11.8926 20.6957L14.5168 19.4906L15.6081 21.7841L16.2966 17.9875L8.8916 17.6506L11.8926 20.6957Z" fill="#CC6228" stroke="#CC6228" stroke-width="0.25" stroke-linecap="round" stroke-linejoin="round"/>
<path d="M8.8916 17.6506L11.9965 23.7019L11.8926 20.6957L8.8916 17.6506Z" fill="#E27525" stroke="#E27525" stroke-width="0.25" stroke-linecap="round" stroke-linejoin="round"/>
<path d="M24.7409 20.6957L24.624 23.7019L27.7289 17.6506L24.7409 20.6957Z" fill="#E27525" stroke="#E27525" stroke-width="0.25" stroke-linecap="round" stroke-linejoin="round"/>
<path d="M16.297 17.9875L15.6084 21.7842L16.4788 26.2675L16.6737 20.3588L16.297 17.9875Z" fill="#E27525" stroke="#E27525" stroke-width="0.25" stroke-linecap="round" stroke-linejoin="round"/>
<path d="M20.3238 17.9875L19.96 20.3459L20.1419 26.2675L21.0123 21.7842L20.3238 17.9875Z" fill="#E27525" stroke="#E27525" stroke-width="0.25" stroke-linecap="round" stroke-linejoin="round"/>
<path d="M21.013 21.7842L20.1426 26.2676L20.7662 26.7082L24.6246 23.702L24.7415 20.6958L21.013 21.7842Z" fill="#F5841F" stroke="#F5841F" stroke-width="0.25" stroke-linecap="round" stroke-linejoin="round"/>
<path d="M11.8926 20.6958L11.9966 23.702L15.8549 26.7082L16.4785 26.2676L15.6081 21.7842L11.8926 20.6958Z" fill="#F5841F" stroke="#F5841F" stroke-width="0.25" stroke-linecap="round" stroke-linejoin="round"/>
<path d="M21.0904 30.8417L21.1294 29.6107L20.7916 29.3256H15.829L15.5042 29.6107L15.5302 30.8417L11.373 28.8721L12.8281 30.0642L15.777 32.0986H20.8306L23.7926 30.0642L25.2346 28.8721L21.0904 30.8417Z" fill="#C0AC9D" stroke="#C0AC9D" stroke-width="0.25" stroke-linecap="round" stroke-linejoin="round"/>
<path d="M20.7664 26.7082L20.1428 26.2676H16.4793L15.8557 26.7082L15.5049 29.6107L15.8297 29.3256H20.7923L21.1301 29.6107L20.7664 26.7082Z" fill="#161616" stroke="#161616" stroke-width="0.25" stroke-linecap="round" stroke-linejoin="round"/>
<path d="M34.0165 11.3532L35.1208 5.98873L33.4579 1L20.7656 10.3944L25.6502 14.5149L32.5485 16.5234L34.0685 14.7482L33.4059 14.2687L34.4582 13.3099L33.6528 12.6879L34.7051 11.8845L34.0165 11.3532Z" fill="#763E1A" stroke="#763E1A" stroke-width="0.25" stroke-linecap="round" stroke-linejoin="round"/>
<path d="M1.5 5.98873L2.61724 11.3532L1.90273 11.8845L2.968 12.6879L2.16255 13.3099L3.21483 14.2687L2.55228 14.7482L4.07225 16.5234L10.9706 14.5149L15.8552 10.3944L3.16287 1L1.5 5.98873Z" fill="#763E1A" stroke="#763E1A" stroke-width="0.25" stroke-linecap="round" stroke-linejoin="round"/>
<path d="M32.5486 16.5234L25.6503 14.5149L27.7289 17.6507L24.624 23.702L28.7292 23.6501H34.861L32.5486 16.5234Z" fill="#F5841F" stroke="#F5841F" stroke-width="0.25" stroke-linecap="round" stroke-linejoin="round"/>
<path d="M10.9702 14.5149L4.0719 16.5234L1.77246 23.6501H7.89129L11.9965 23.702L8.89161 17.6507L10.9702 14.5149Z" fill="#F5841F" stroke="#F5841F" stroke-width="0.25" stroke-linecap="round" stroke-linejoin="round"/>
<path d="M20.324 17.9876L20.7657 10.3944L22.7664 4.99097H13.8545L15.8551 10.3944L16.2968 17.9876L16.4657 20.3718L16.4787 26.2676H20.1422L20.1552 20.3718L20.324 17.9876Z" fill="#F5841F" stroke="#F5841F" stroke-width="0.25" stroke-linecap="round" stroke-linejoin="round"/>
</g>
<defs>
<clipPath id="clip0_12_687">
<rect width="35" height="33" fill="white" transform="translate(0.5)"/>
</clipPath>
</defs>
</svg>
