<svg version="1.1" xmlns="http://www.w3.org/2000/svg" xmlns:xlink="http://www.w3.org/1999/xlink" x="0px"
	 y="0px" viewBox="0 0 210 220" style="enable-background:new 0 0 210 220;" xml:space="preserve">
<path style="fill:#F5F5F5" d="M193.871,161.801l-0.555-0.652c-1.317-1.696-2.843-3.652-4.368-5.413
	c-2.843-3.587-7.28-9.326-13.311-17.218L149.5,104.799l0.555-0.652l1.317,1.174c0-0.522,0.693-0.978,2.08-1.63l-0.971-1.239
	c-0.139-0.196-0.277-0.391-0.416-0.587l-1.803,2.152l-0.971-0.848l-0.347,0.391l-1.803-2.348l-0.485-0.391l0,0
	c-0.485-0.457-1.04-0.848-1.525-1.435c0.416-0.391,0.832-0.783,1.109-1.304v-0.326c0.693-0.848,1.04-1.37,1.317-1.63
	c0.277-0.261,1.109,1.37,1.664,1.957l-2.565,2.739c0.139,0.13,0.347,0.261,0.485,0.391c0.624,0.652,1.317,1.239,2.011,1.826
	c0.693-0.717,1.387-1.565,2.288-2.348l0.693,0.978c7.973-9.522,15.599-18.196,22.532-25.957
	c-8.458,8.739-16.362,17.153-23.503,25.175l-2.08-2.609c8.112-8.283,15.391-17.348,21.7-26.935c2.011,1.239,3.536,2.348,4.645,3.131
	c8.458-8.935,16.639-17.479,24.82-25.696c2.912-3.978,3.952-8.87,2.912-13.566c-8.112,5.674-15.738,11.935-22.809,18.718
	c-8.042,7.435-14.282,13.631-18.719,18.522c-1.317,1.37-2.773,3-4.506,4.957l-15.738,17.413c0-0.261-0.139-0.522-0.416-0.717
	c-0.208-0.196-0.347-0.457-0.416-0.717c4.506-5.739,9.567-11.152,15.045-16.109c4.229-3.978,11.093-11.152,20.799-21.718
	c7.141-8.218,14.975-15.848,23.503-22.827l2.496-1.957c-0.347-1.304-0.763-3.196-1.248-5.609v-0.326
	c-4.506-10.826-11.717-15-21.77-12.652c-0.555,0.587-1.179,1.37-2.011,2.413l-2.219,2.674c-2.635-1.435-4.992-3.326-6.933-5.609
	c-2.981,3.065-12.895,13.044-29.396,30.327c3.397-4.174,8.042-9.783,14.213-16.761c6.17-6.978,9.776-11.348,12.479-14.348
	l1.179-1.304c-2.219-2.609-5.824-3.652-9.221-2.739c-1.317,0.457-2.496,1.109-3.536,1.957c-1.456,1.174-2.773,2.609-3.813,4.109
	l-2.843,3.978l-0.971,1.37c-1.179,1.891-2.496,3.717-3.952,5.609c-1.179,1.63-2.635,3.131-4.229,4.37
	c-9.429,8.152-18.372,16.696-26.9,25.696l-8.805-13.044l-1.664-2.478l1.525,2.413c2.843,4.435,5.685,9,8.458,13.696
	c0,0,0,0.522-0.693,0.717c-0.416,0.196-0.693,0.587-0.763,0.978c0,0.391-0.416,0.652-0.693,0.652
	c-4.09-5.935-8.736-11.479-13.866-16.631c0.555-0.13,1.04-0.391,1.456-0.717l2.08-1.37c0.485-0.261,0.971-0.587,1.456-0.978
	c-6.586-9.392-12.618-19.174-18.095-29.153c-3.12-3.652-7.626-6-12.549-6.522c8.805,21.588,20.036,42.262,33.556,61.567
	c-0.693,0.848-1.04,1.239-1.317,1.239c-1.803-2.935-3.466-5.935-4.992-9.065c-2.912-4.696-8.042-13.044-15.599-24.066
	c-6.101-8.674-11.439-17.74-15.946-27.196c-0.139-1.044-0.416-2.087-0.763-3.131h-7.002C44.742,1.557,38.295,6.775,37.74,16.232
	c0.971,1.174,1.872,2.348,2.704,3.587l1.109,1.5c-2.08,2.087-4.645,3.717-7.557,4.696c2.149,4.044,8.736,15.066,19.69,33.131
	c-2.704-4.109-6.309-9.392-10.885-15.783S33.927,30.906,31.57,27.71l-0.555-0.717c-2.981,1.304-5.061,4.044-5.408,7.109
	c-0.069,2.413,0.832,4.696,2.496,6.522c2.288,3,4.784,5.935,7.418,8.674c2.357,2.348,4.298,5.022,5.685,7.957
	c7.349,14.674,15.669,28.892,24.82,42.588c-3.952,4.957-9.359,12.522-16.362,22.827c-6.656,9.457-13.935,18.522-21.77,27.196
	c-8.458,8.87-15.461,18.848-20.799,29.675c-3.189,8.413-0.763,14.153,6.933,17.153c8.112,2.935,17.332,1.957,24.543-2.609
	c0.693,0.652,1.387,1.174,2.219,1.63l1.387,0.978l0.901,0.652c-2.011,1.696-3.605,3.717-4.645,6.065
	c-0.555,1.5-0.277,3.131,0.693,4.37c1.109,1.37,2.427,2.609,4.021,3.522c1.595,1.109,3.259,2.087,4.992,3
	c1.595,0.652,2.912,1.761,3.813,3.131c5.824-7.239,13.242-13.174,21.77-17.413c1.595-2.283,3.397-4.5,5.408-6.522
	c5.338-6.522,11.855-14.935,19.62-24.718l7.696-9.718c0.555,0.717,1.317,1.826,2.496,3.131c7.488,8.544,14.421,17.479,20.799,26.805
	c6.378,9.848,14.282,18.718,23.364,26.414c4.714,4.761,12.618,5.022,17.61,0.587c0.555-0.457,1.04-0.978,1.525-1.565
	c5.616-6.326,7.418-14.87,4.853-22.696c0.485-0.196,0.971-0.457,1.387-0.783l1.387-0.848l1.387-0.978l0.901-0.652
	c0.832,2.348,2.357,4.37,4.368,5.935c1.317,1.044,3.12,1.304,4.645,0.652c1.664-0.913,3.12-2.087,4.506-3.326l4.645-3.587
	c1.109-0.978,2.496-1.761,3.952-2.283C198.932,178.692,195.396,170.475,193.871,161.801z M73.306,91.234
	c-4.576-8.218-10.053-17.805-16.986-28.566c6.448,9.065,12.202,18.457,17.402,28.175L73.306,91.234z M108.664,61.298
	c-0.901,0.587-1.317,0.978-1.317,1.239l-0.416-0.391l1.317-1.239c0.208-0.065,0.347,0.065,0.416,0.261
	C108.664,61.233,108.664,61.233,108.664,61.298z M114.904,55.428l-0.555,0.522l-0.416-0.391l1.317-1.239l1.317-1.239l0.416,0.391
	C116.984,53.928,116.013,54.45,114.904,55.428z M117.955,63.124l-0.416-0.391c5.13-4.631,10.954-10.761,17.887-17.674
	C129.255,51.711,123.501,57.711,117.955,63.124z M138.13,87.907v-0.13c-0.624,0.587-1.109,1.239-1.456,1.957l-0.763-1.304
	c0.763-1.435,1.733-2.739,2.912-3.913l0.763,1.239C139.17,86.538,138.684,87.255,138.13,87.907z M141.319,95.342l1.664-1.63
	c0.485-0.457,1.04-0.913,1.595-1.5c0.624,0.717,1.04,1.37,1.387,1.826l0.693,0.913c-1.109,0.978-2.011,2.087-2.843,3.261v-0.13
	C143.052,97.103,142.22,96.19,141.319,95.342z"/>
</svg>
